<svg width="290" height="106" viewBox="0 0 290 106" fill="none" xmlns="http://www.w3.org/2000/svg">
<circle cx="53" cy="53" r="53" fill="#9F8CD6"/>
<path fill-rule="evenodd" clip-rule="evenodd" d="M41.5119 28.953C40.6845 28.953 39.9375 29.6446 39.9375 30.5401V31.914C40.015 31.8938 40.0963 31.8831 40.1801 31.8831H59.5548C60.0898 31.8831 60.5236 32.3203 60.5236 32.8596C60.5236 33.3989 60.0898 33.8361 59.5548 33.8361H40.1801C40.0963 33.8361 40.015 33.8254 39.9375 33.8052V68.5333C40.015 68.5132 40.0963 68.5024 40.1801 68.5024H41.3909C41.9259 68.5024 42.3596 68.9396 42.3596 69.479C42.3596 70.0183 41.9259 70.4555 41.3909 70.4555H40.1801C40.0963 70.4555 40.015 70.4448 39.9375 70.4246V75.4599C39.9375 76.2637 40.7145 77.047 41.5119 77.047H52.524C51.3873 76.5693 50.5937 75.441 50.5937 74.1172C50.5937 72.3567 51.9966 70.9434 53.7422 70.9434C54.2773 70.9434 54.711 71.3806 54.711 71.9199C54.711 72.4592 54.2773 72.8964 53.7422 72.8964C53.0664 72.8964 52.5312 73.4356 52.5312 74.1172C52.5312 74.7985 53.0661 75.3379 53.7422 75.3379C54.4181 75.3379 54.9533 74.7987 54.9533 74.1172C54.9533 73.5779 55.387 73.1407 55.922 73.1407C56.457 73.1407 56.8908 73.5779 56.8908 74.1172C56.8908 75.4415 56.0968 76.5694 54.9604 77.047H65.4569C65.4671 77.0466 65.4774 77.0465 65.4876 77.0465C66.2712 77.0465 67.0171 76.2963 66.9448 75.4186C66.9426 75.3917 66.9415 75.3648 66.9415 75.3378V70.4555H45.0238C44.4888 70.4555 44.055 70.0183 44.055 69.479C44.055 68.9396 44.4888 68.5024 45.0238 68.5024H66.9415V33.8361H64.3985C63.8635 33.8361 63.4298 33.3989 63.4298 32.8596C63.4298 32.3203 63.8635 31.8831 64.3985 31.8831H66.9415V30.5401C66.9415 29.706 66.2554 28.953 65.367 28.953H41.5119ZM68.8789 32.3865V30.5401C68.8789 28.688 67.3846 27 65.367 27H41.5119C39.6745 27 38 28.5063 38 30.5401V75.4599C38 77.3423 39.6445 79 41.5119 79H65.4881C65.5005 79 65.5128 78.9998 65.5251 78.9993C67.3778 78.9772 69.0198 77.3189 68.8789 75.3007V69.952C68.9561 69.8119 69 69.6506 69 69.479C69 69.3073 68.9561 69.146 68.8789 69.0059V33.3326C68.9561 33.1925 69 33.0312 69 32.8596C69 32.688 68.9561 32.5267 68.8789 32.3865Z" fill="white"/>
<path d="M150.668 69.3242C150.668 70.3945 150.418 71.2969 149.918 72.0312C149.418 72.7578 148.73 73.3086 147.855 73.6836C146.988 74.0508 146.004 74.2344 144.902 74.2344C143.801 74.2344 142.812 74.0508 141.938 73.6836C141.062 73.3086 140.371 72.7578 139.863 72.0312C139.355 71.2969 139.102 70.3945 139.102 69.3242C139.102 68.6055 139.246 67.957 139.535 67.3789C139.824 66.793 140.227 66.293 140.742 65.8789C141.266 65.457 141.879 65.1367 142.582 64.918C143.285 64.6914 144.051 64.5781 144.879 64.5781C145.988 64.5781 146.98 64.7734 147.855 65.1641C148.73 65.5547 149.418 66.1055 149.918 66.8164C150.418 67.5273 150.668 68.3633 150.668 69.3242ZM147.27 69.1016C147.27 68.5781 147.168 68.1289 146.965 67.7539C146.77 67.3711 146.492 67.0781 146.133 66.875C145.773 66.6719 145.355 66.5703 144.879 66.5703C144.402 66.5703 143.984 66.6719 143.625 66.875C143.266 67.0781 142.984 67.3711 142.781 67.7539C142.586 68.1289 142.488 68.5781 142.488 69.1016C142.488 69.6172 142.586 70.0625 142.781 70.4375C142.984 70.8125 143.266 71.1016 143.625 71.3047C143.992 71.5 144.418 71.5977 144.902 71.5977C145.387 71.5977 145.805 71.5 146.156 71.3047C146.516 71.1016 146.789 70.8125 146.977 70.4375C147.172 70.0625 147.27 69.6172 147.27 69.1016ZM150.305 61.4609C150.305 62.3281 150.074 63.0977 149.613 63.7695C149.152 64.4336 148.512 64.9531 147.691 65.3281C146.879 65.7031 145.949 65.8906 144.902 65.8906C143.848 65.8906 142.91 65.7031 142.09 65.3281C141.27 64.9531 140.629 64.4336 140.168 63.7695C139.707 63.0977 139.477 62.3281 139.477 61.4609C139.477 60.4297 139.707 59.5625 140.168 58.8594C140.637 58.1484 141.277 57.6094 142.09 57.2422C142.91 56.875 143.84 56.6914 144.879 56.6914C145.934 56.6914 146.867 56.875 147.68 57.2422C148.5 57.6094 149.141 58.1484 149.602 58.8594C150.07 59.5625 150.305 60.4297 150.305 61.4609ZM146.93 61.6133C146.93 61.1523 146.848 60.7539 146.684 60.418C146.52 60.0742 146.285 59.8086 145.98 59.6211C145.684 59.4336 145.316 59.3398 144.879 59.3398C144.457 59.3398 144.094 59.4297 143.789 59.6094C143.492 59.7891 143.262 60.0508 143.098 60.3945C142.941 60.7305 142.863 61.1367 142.863 61.6133C142.863 62.0742 142.941 62.4805 143.098 62.832C143.262 63.1758 143.496 63.4453 143.801 63.6406C144.105 63.8359 144.473 63.9336 144.902 63.9336C145.332 63.9336 145.695 63.8359 145.992 63.6406C146.297 63.4453 146.527 63.1758 146.684 62.832C146.848 62.4805 146.93 62.0742 146.93 61.6133ZM161.66 56.7617H162.152V59.457H161.953C161.062 59.457 160.27 59.5898 159.574 59.8555C158.879 60.1211 158.289 60.5 157.805 60.9922C157.328 61.4766 156.961 62.0625 156.703 62.75C156.453 63.4375 156.328 64.207 156.328 65.0586V67.8945C156.328 68.5039 156.387 69.043 156.504 69.5117C156.629 69.9727 156.805 70.3594 157.031 70.6719C157.266 70.9766 157.539 71.207 157.852 71.3633C158.164 71.5117 158.516 71.5859 158.906 71.5859C159.273 71.5859 159.605 71.5078 159.902 71.3516C160.207 71.1953 160.465 70.9766 160.676 70.6953C160.895 70.4062 161.059 70.0703 161.168 69.6875C161.285 69.2969 161.344 68.8711 161.344 68.4102C161.344 67.9492 161.285 67.5234 161.168 67.1328C161.059 66.7422 160.895 66.4062 160.676 66.125C160.457 65.8359 160.191 65.6133 159.879 65.457C159.566 65.3008 159.215 65.2227 158.824 65.2227C158.293 65.2227 157.824 65.3477 157.418 65.5977C157.02 65.8398 156.707 66.1523 156.48 66.5352C156.254 66.918 156.133 67.3203 156.117 67.7422L155.098 67.0859C155.121 66.4844 155.246 65.9141 155.473 65.375C155.707 64.8359 156.027 64.3594 156.434 63.9453C156.848 63.5234 157.344 63.1953 157.922 62.9609C158.5 62.7188 159.152 62.5977 159.879 62.5977C160.676 62.5977 161.375 62.75 161.977 63.0547C162.586 63.3594 163.094 63.7773 163.5 64.3086C163.906 64.8398 164.211 65.4531 164.414 66.1484C164.617 66.8438 164.719 67.5859 164.719 68.375C164.719 69.2031 164.582 69.9727 164.309 70.6836C164.043 71.3945 163.656 72.0156 163.148 72.5469C162.648 73.0781 162.047 73.4922 161.344 73.7891C160.641 74.0859 159.852 74.2344 158.977 74.2344C158.07 74.2344 157.246 74.0703 156.504 73.7422C155.77 73.4062 155.137 72.9375 154.605 72.3359C154.074 71.7344 153.664 71.0195 153.375 70.1914C153.094 69.3633 152.953 68.457 152.953 67.4727V66.1602C152.953 64.7852 153.152 63.5273 153.551 62.3867C153.957 61.2383 154.539 60.2461 155.297 59.4102C156.055 58.5664 156.969 57.9141 158.039 57.4531C159.109 56.9922 160.316 56.7617 161.66 56.7617ZM178.688 67.625V70.2734H166.395L166.23 68.2227L173.344 56.9375H176.027L173.121 61.8008L169.582 67.625H178.688ZM176.754 56.9375V74H173.379V56.9375H176.754ZM180.82 72.3711C180.82 71.8711 180.992 71.4531 181.336 71.1172C181.688 70.7812 182.152 70.6133 182.73 70.6133C183.309 70.6133 183.77 70.7812 184.113 71.1172C184.465 71.4531 184.641 71.8711 184.641 72.3711C184.641 72.8711 184.465 73.2891 184.113 73.625C183.77 73.9609 183.309 74.1289 182.73 74.1289C182.152 74.1289 181.688 73.9609 181.336 73.625C180.992 73.2891 180.82 72.8711 180.82 72.3711ZM196.184 56.7617H196.676V59.457H196.477C195.586 59.457 194.793 59.5898 194.098 59.8555C193.402 60.1211 192.812 60.5 192.328 60.9922C191.852 61.4766 191.484 62.0625 191.227 62.75C190.977 63.4375 190.852 64.207 190.852 65.0586V67.8945C190.852 68.5039 190.91 69.043 191.027 69.5117C191.152 69.9727 191.328 70.3594 191.555 70.6719C191.789 70.9766 192.062 71.207 192.375 71.3633C192.688 71.5117 193.039 71.5859 193.43 71.5859C193.797 71.5859 194.129 71.5078 194.426 71.3516C194.73 71.1953 194.988 70.9766 195.199 70.6953C195.418 70.4062 195.582 70.0703 195.691 69.6875C195.809 69.2969 195.867 68.8711 195.867 68.4102C195.867 67.9492 195.809 67.5234 195.691 67.1328C195.582 66.7422 195.418 66.4062 195.199 66.125C194.98 65.8359 194.715 65.6133 194.402 65.457C194.09 65.3008 193.738 65.2227 193.348 65.2227C192.816 65.2227 192.348 65.3477 191.941 65.5977C191.543 65.8398 191.23 66.1523 191.004 66.5352C190.777 66.918 190.656 67.3203 190.641 67.7422L189.621 67.0859C189.645 66.4844 189.77 65.9141 189.996 65.375C190.23 64.8359 190.551 64.3594 190.957 63.9453C191.371 63.5234 191.867 63.1953 192.445 62.9609C193.023 62.7188 193.676 62.5977 194.402 62.5977C195.199 62.5977 195.898 62.75 196.5 63.0547C197.109 63.3594 197.617 63.7773 198.023 64.3086C198.43 64.8398 198.734 65.4531 198.938 66.1484C199.141 66.8438 199.242 67.5859 199.242 68.375C199.242 69.2031 199.105 69.9727 198.832 70.6836C198.566 71.3945 198.18 72.0156 197.672 72.5469C197.172 73.0781 196.57 73.4922 195.867 73.7891C195.164 74.0859 194.375 74.2344 193.5 74.2344C192.594 74.2344 191.77 74.0703 191.027 73.7422C190.293 73.4062 189.66 72.9375 189.129 72.3359C188.598 71.7344 188.188 71.0195 187.898 70.1914C187.617 69.3633 187.477 68.457 187.477 67.4727V66.1602C187.477 64.7852 187.676 63.5273 188.074 62.3867C188.48 61.2383 189.062 60.2461 189.82 59.4102C190.578 58.5664 191.492 57.9141 192.562 57.4531C193.633 56.9922 194.84 56.7617 196.184 56.7617ZM212.848 56.9375V58.7539L206.25 74H202.688L209.285 59.5742H200.789V56.9375H212.848ZM226.992 67.625V70.2734H214.699L214.535 68.2227L221.648 56.9375H224.332L221.426 61.8008L217.887 67.625H226.992ZM225.059 56.9375V74H221.684V56.9375H225.059ZM229.125 72.3711C229.125 71.8711 229.297 71.4531 229.641 71.1172C229.992 70.7812 230.457 70.6133 231.035 70.6133C231.613 70.6133 232.074 70.7812 232.418 71.1172C232.77 71.4531 232.945 71.8711 232.945 72.3711C232.945 72.8711 232.77 73.2891 232.418 73.625C232.074 73.9609 231.613 74.1289 231.035 74.1289C230.457 74.1289 229.992 73.9609 229.641 73.625C229.297 73.2891 229.125 72.8711 229.125 72.3711ZM244.488 56.7617H244.98V59.457H244.781C243.891 59.457 243.098 59.5898 242.402 59.8555C241.707 60.1211 241.117 60.5 240.633 60.9922C240.156 61.4766 239.789 62.0625 239.531 62.75C239.281 63.4375 239.156 64.207 239.156 65.0586V67.8945C239.156 68.5039 239.215 69.043 239.332 69.5117C239.457 69.9727 239.633 70.3594 239.859 70.6719C240.094 70.9766 240.367 71.207 240.68 71.3633C240.992 71.5117 241.344 71.5859 241.734 71.5859C242.102 71.5859 242.434 71.5078 242.73 71.3516C243.035 71.1953 243.293 70.9766 243.504 70.6953C243.723 70.4062 243.887 70.0703 243.996 69.6875C244.113 69.2969 244.172 68.8711 244.172 68.4102C244.172 67.9492 244.113 67.5234 243.996 67.1328C243.887 66.7422 243.723 66.4062 243.504 66.125C243.285 65.8359 243.02 65.6133 242.707 65.457C242.395 65.3008 242.043 65.2227 241.652 65.2227C241.121 65.2227 240.652 65.3477 240.246 65.5977C239.848 65.8398 239.535 66.1523 239.309 66.5352C239.082 66.918 238.961 67.3203 238.945 67.7422L237.926 67.0859C237.949 66.4844 238.074 65.9141 238.301 65.375C238.535 64.8359 238.855 64.3594 239.262 63.9453C239.676 63.5234 240.172 63.1953 240.75 62.9609C241.328 62.7188 241.98 62.5977 242.707 62.5977C243.504 62.5977 244.203 62.75 244.805 63.0547C245.414 63.3594 245.922 63.7773 246.328 64.3086C246.734 64.8398 247.039 65.4531 247.242 66.1484C247.445 66.8438 247.547 67.5859 247.547 68.375C247.547 69.2031 247.41 69.9727 247.137 70.6836C246.871 71.3945 246.484 72.0156 245.977 72.5469C245.477 73.0781 244.875 73.4922 244.172 73.7891C243.469 74.0859 242.68 74.2344 241.805 74.2344C240.898 74.2344 240.074 74.0703 239.332 73.7422C238.598 73.4062 237.965 72.9375 237.434 72.3359C236.902 71.7344 236.492 71.0195 236.203 70.1914C235.922 69.3633 235.781 68.457 235.781 67.4727V66.1602C235.781 64.7852 235.98 63.5273 236.379 62.3867C236.785 61.2383 237.367 60.2461 238.125 59.4102C238.883 58.5664 239.797 57.9141 240.867 57.4531C241.938 56.9922 243.145 56.7617 244.488 56.7617ZM252.738 66.2305L250.043 65.5859L251.016 56.9375H260.602V59.668H253.793L253.371 63.4531C253.598 63.3203 253.941 63.1797 254.402 63.0312C254.863 62.875 255.379 62.7969 255.949 62.7969C256.777 62.7969 257.512 62.9258 258.152 63.1836C258.793 63.4414 259.336 63.8164 259.781 64.3086C260.234 64.8008 260.578 65.4023 260.812 66.1133C261.047 66.8242 261.164 67.6289 261.164 68.5273C261.164 69.2852 261.047 70.0078 260.812 70.6953C260.578 71.375 260.223 71.9844 259.746 72.5234C259.27 73.0547 258.672 73.4727 257.953 73.7773C257.234 74.082 256.383 74.2344 255.398 74.2344C254.664 74.2344 253.953 74.125 253.266 73.9062C252.586 73.6875 251.973 73.3633 251.426 72.9336C250.887 72.5039 250.453 71.9844 250.125 71.375C249.805 70.7578 249.637 70.0547 249.621 69.2656H252.973C253.02 69.75 253.145 70.168 253.348 70.5195C253.559 70.8633 253.836 71.1289 254.18 71.3164C254.523 71.5039 254.926 71.5977 255.387 71.5977C255.816 71.5977 256.184 71.5156 256.488 71.3516C256.793 71.1875 257.039 70.9609 257.227 70.6719C257.414 70.375 257.551 70.0312 257.637 69.6406C257.73 69.2422 257.777 68.8125 257.777 68.3516C257.777 67.8906 257.723 67.4727 257.613 67.0977C257.504 66.7227 257.336 66.3984 257.109 66.125C256.883 65.8516 256.594 65.6406 256.242 65.4922C255.898 65.3438 255.496 65.2695 255.035 65.2695C254.41 65.2695 253.926 65.3672 253.582 65.5625C253.246 65.7578 252.965 65.9805 252.738 66.2305ZM274.84 69.3242C274.84 70.3945 274.59 71.2969 274.09 72.0312C273.59 72.7578 272.902 73.3086 272.027 73.6836C271.16 74.0508 270.176 74.2344 269.074 74.2344C267.973 74.2344 266.984 74.0508 266.109 73.6836C265.234 73.3086 264.543 72.7578 264.035 72.0312C263.527 71.2969 263.273 70.3945 263.273 69.3242C263.273 68.6055 263.418 67.957 263.707 67.3789C263.996 66.793 264.398 66.293 264.914 65.8789C265.438 65.457 266.051 65.1367 266.754 64.918C267.457 64.6914 268.223 64.5781 269.051 64.5781C270.16 64.5781 271.152 64.7734 272.027 65.1641C272.902 65.5547 273.59 66.1055 274.09 66.8164C274.59 67.5273 274.84 68.3633 274.84 69.3242ZM271.441 69.1016C271.441 68.5781 271.34 68.1289 271.137 67.7539C270.941 67.3711 270.664 67.0781 270.305 66.875C269.945 66.6719 269.527 66.5703 269.051 66.5703C268.574 66.5703 268.156 66.6719 267.797 66.875C267.438 67.0781 267.156 67.3711 266.953 67.7539C266.758 68.1289 266.66 68.5781 266.66 69.1016C266.66 69.6172 266.758 70.0625 266.953 70.4375C267.156 70.8125 267.438 71.1016 267.797 71.3047C268.164 71.5 268.59 71.5977 269.074 71.5977C269.559 71.5977 269.977 71.5 270.328 71.3047C270.688 71.1016 270.961 70.8125 271.148 70.4375C271.344 70.0625 271.441 69.6172 271.441 69.1016ZM274.477 61.4609C274.477 62.3281 274.246 63.0977 273.785 63.7695C273.324 64.4336 272.684 64.9531 271.863 65.3281C271.051 65.7031 270.121 65.8906 269.074 65.8906C268.02 65.8906 267.082 65.7031 266.262 65.3281C265.441 64.9531 264.801 64.4336 264.34 63.7695C263.879 63.0977 263.648 62.3281 263.648 61.4609C263.648 60.4297 263.879 59.5625 264.34 58.8594C264.809 58.1484 265.449 57.6094 266.262 57.2422C267.082 56.875 268.012 56.6914 269.051 56.6914C270.105 56.6914 271.039 56.875 271.852 57.2422C272.672 57.6094 273.312 58.1484 273.773 58.8594C274.242 59.5625 274.477 60.4297 274.477 61.4609ZM271.102 61.6133C271.102 61.1523 271.02 60.7539 270.855 60.418C270.691 60.0742 270.457 59.8086 270.152 59.6211C269.855 59.4336 269.488 59.3398 269.051 59.3398C268.629 59.3398 268.266 59.4297 267.961 59.6094C267.664 59.7891 267.434 60.0508 267.27 60.3945C267.113 60.7305 267.035 61.1367 267.035 61.6133C267.035 62.0742 267.113 62.4805 267.27 62.832C267.434 63.1758 267.668 63.4453 267.973 63.6406C268.277 63.8359 268.645 63.9336 269.074 63.9336C269.504 63.9336 269.867 63.8359 270.164 63.6406C270.469 63.4453 270.699 63.1758 270.855 62.832C271.02 62.4805 271.102 62.0742 271.102 61.6133ZM288.715 56.9375V58.7539L282.117 74H278.555L285.152 59.5742H276.656V56.9375H288.715Z" fill="white"/>
<path d="M144.205 37.9814H140.786V36.6016H144.205C144.867 36.6016 145.403 36.4961 145.813 36.2852C146.224 36.0742 146.522 35.7812 146.71 35.4062C146.903 35.0312 147 34.6035 147 34.123C147 33.6836 146.903 33.2705 146.71 32.8838C146.522 32.4971 146.224 32.1865 145.813 31.9521C145.403 31.7119 144.867 31.5918 144.205 31.5918H141.182V43H139.485V30.2031H144.205C145.172 30.2031 145.989 30.3701 146.657 30.7041C147.325 31.0381 147.832 31.501 148.178 32.0928C148.523 32.6787 148.696 33.3496 148.696 34.1055C148.696 34.9258 148.523 35.626 148.178 36.2061C147.832 36.7861 147.325 37.2285 146.657 37.5332C145.989 37.832 145.172 37.9814 144.205 37.9814ZM152.221 29.5V43H150.595V29.5H152.221ZM151.834 37.8848L151.157 37.8584C151.163 37.208 151.26 36.6074 151.447 36.0566C151.635 35.5 151.898 35.0166 152.238 34.6064C152.578 34.1963 152.982 33.8799 153.451 33.6572C153.926 33.4287 154.45 33.3145 155.024 33.3145C155.493 33.3145 155.915 33.3789 156.29 33.5078C156.665 33.6309 156.984 33.8301 157.248 34.1055C157.518 34.3809 157.723 34.7383 157.863 35.1777C158.004 35.6113 158.074 36.1416 158.074 36.7686V43H156.439V36.751C156.439 36.2529 156.366 35.8545 156.22 35.5557C156.073 35.251 155.859 35.0312 155.578 34.8965C155.297 34.7559 154.951 34.6855 154.541 34.6855C154.137 34.6855 153.768 34.7705 153.434 34.9404C153.105 35.1104 152.821 35.3447 152.581 35.6436C152.347 35.9424 152.162 36.2852 152.027 36.6719C151.898 37.0527 151.834 37.457 151.834 37.8848ZM160.078 38.3506V38.1484C160.078 37.4629 160.178 36.8271 160.377 36.2412C160.576 35.6494 160.863 35.1367 161.238 34.7031C161.613 34.2637 162.067 33.9238 162.601 33.6836C163.134 33.4375 163.731 33.3145 164.394 33.3145C165.062 33.3145 165.662 33.4375 166.195 33.6836C166.734 33.9238 167.191 34.2637 167.566 34.7031C167.947 35.1367 168.237 35.6494 168.437 36.2412C168.636 36.8271 168.735 37.4629 168.735 38.1484V38.3506C168.735 39.0361 168.636 39.6719 168.437 40.2578C168.237 40.8438 167.947 41.3564 167.566 41.7959C167.191 42.2295 166.737 42.5693 166.204 42.8154C165.677 43.0557 165.079 43.1758 164.411 43.1758C163.743 43.1758 163.143 43.0557 162.609 42.8154C162.076 42.5693 161.619 42.2295 161.238 41.7959C160.863 41.3564 160.576 40.8438 160.377 40.2578C160.178 39.6719 160.078 39.0361 160.078 38.3506ZM161.704 38.1484V38.3506C161.704 38.8252 161.76 39.2734 161.871 39.6953C161.982 40.1113 162.149 40.4805 162.372 40.8027C162.601 41.125 162.885 41.3799 163.225 41.5674C163.564 41.749 163.96 41.8398 164.411 41.8398C164.856 41.8398 165.246 41.749 165.58 41.5674C165.92 41.3799 166.201 41.125 166.424 40.8027C166.646 40.4805 166.813 40.1113 166.925 39.6953C167.042 39.2734 167.101 38.8252 167.101 38.3506V38.1484C167.101 37.6797 167.042 37.2373 166.925 36.8213C166.813 36.3994 166.644 36.0273 166.415 35.7051C166.192 35.377 165.911 35.1191 165.571 34.9316C165.237 34.7441 164.845 34.6504 164.394 34.6504C163.948 34.6504 163.556 34.7441 163.216 34.9316C162.882 35.1191 162.601 35.377 162.372 35.7051C162.149 36.0273 161.982 36.3994 161.871 36.8213C161.76 37.2373 161.704 37.6797 161.704 38.1484ZM172.4 35.5205V43H170.774V33.4902H172.312L172.4 35.5205ZM172.014 37.8848L171.337 37.8584C171.343 37.208 171.439 36.6074 171.627 36.0566C171.814 35.5 172.078 35.0166 172.418 34.6064C172.758 34.1963 173.162 33.8799 173.631 33.6572C174.105 33.4287 174.63 33.3145 175.204 33.3145C175.673 33.3145 176.095 33.3789 176.47 33.5078C176.845 33.6309 177.164 33.8301 177.428 34.1055C177.697 34.3809 177.902 34.7383 178.043 35.1777C178.184 35.6113 178.254 36.1416 178.254 36.7686V43H176.619V36.751C176.619 36.2529 176.546 35.8545 176.399 35.5557C176.253 35.251 176.039 35.0312 175.758 34.8965C175.477 34.7559 175.131 34.6855 174.721 34.6855C174.316 34.6855 173.947 34.7705 173.613 34.9404C173.285 35.1104 173.001 35.3447 172.761 35.6436C172.526 35.9424 172.342 36.2852 172.207 36.6719C172.078 37.0527 172.014 37.457 172.014 37.8848ZM184.67 43.1758C184.008 43.1758 183.407 43.0645 182.868 42.8418C182.335 42.6133 181.875 42.2939 181.488 41.8838C181.107 41.4736 180.814 40.9873 180.609 40.4248C180.404 39.8623 180.302 39.2471 180.302 38.5791V38.21C180.302 37.4365 180.416 36.748 180.645 36.1445C180.873 35.5352 181.184 35.0195 181.576 34.5977C181.969 34.1758 182.414 33.8564 182.912 33.6396C183.41 33.4229 183.926 33.3145 184.459 33.3145C185.139 33.3145 185.725 33.4316 186.217 33.666C186.715 33.9004 187.122 34.2285 187.438 34.6504C187.755 35.0664 187.989 35.5586 188.142 36.127C188.294 36.6895 188.37 37.3047 188.37 37.9727V38.7021H181.269V37.375H186.744V37.252C186.721 36.8301 186.633 36.4199 186.48 36.0215C186.334 35.623 186.1 35.2949 185.777 35.0371C185.455 34.7793 185.016 34.6504 184.459 34.6504C184.09 34.6504 183.75 34.7295 183.439 34.8877C183.129 35.04 182.862 35.2686 182.64 35.5732C182.417 35.8779 182.244 36.25 182.121 36.6895C181.998 37.1289 181.937 37.6357 181.937 38.21V38.5791C181.937 39.0303 181.998 39.4551 182.121 39.8535C182.25 40.2461 182.435 40.5918 182.675 40.8906C182.921 41.1895 183.217 41.4238 183.562 41.5938C183.914 41.7637 184.312 41.8486 184.758 41.8486C185.332 41.8486 185.818 41.7314 186.217 41.4971C186.615 41.2627 186.964 40.9492 187.263 40.5566L188.247 41.3389C188.042 41.6494 187.781 41.9453 187.465 42.2266C187.148 42.5078 186.759 42.7363 186.296 42.9121C185.839 43.0879 185.297 43.1758 184.67 43.1758Z" fill="#9C99AF"/>
</svg>
