<svg width="290" height="106" viewBox="0 0 290 106" fill="none" xmlns="http://www.w3.org/2000/svg">
<circle cx="53" cy="53" r="53" fill="#9F8CD6"/>
<path fill-rule="evenodd" clip-rule="evenodd" d="M41.5119 28.953C40.6845 28.953 39.9375 29.6446 39.9375 30.5401V31.914C40.015 31.8938 40.0963 31.8831 40.1801 31.8831H59.5548C60.0898 31.8831 60.5236 32.3203 60.5236 32.8596C60.5236 33.3989 60.0898 33.8361 59.5548 33.8361H40.1801C40.0963 33.8361 40.015 33.8254 39.9375 33.8052V68.5333C40.015 68.5132 40.0963 68.5024 40.1801 68.5024H41.3909C41.9259 68.5024 42.3596 68.9396 42.3596 69.479C42.3596 70.0183 41.9259 70.4555 41.3909 70.4555H40.1801C40.0963 70.4555 40.015 70.4448 39.9375 70.4246V75.4599C39.9375 76.2637 40.7145 77.047 41.5119 77.047H52.524C51.3873 76.5693 50.5937 75.441 50.5937 74.1172C50.5937 72.3567 51.9966 70.9434 53.7422 70.9434C54.2773 70.9434 54.711 71.3806 54.711 71.9199C54.711 72.4592 54.2773 72.8964 53.7422 72.8964C53.0664 72.8964 52.5312 73.4356 52.5312 74.1172C52.5312 74.7985 53.0661 75.3379 53.7422 75.3379C54.4181 75.3379 54.9533 74.7987 54.9533 74.1172C54.9533 73.5779 55.387 73.1407 55.922 73.1407C56.457 73.1407 56.8908 73.5779 56.8908 74.1172C56.8908 75.4415 56.0968 76.5694 54.9604 77.047H65.4569C65.4671 77.0466 65.4774 77.0465 65.4876 77.0465C66.2712 77.0465 67.0171 76.2963 66.9448 75.4186C66.9426 75.3917 66.9415 75.3648 66.9415 75.3378V70.4555H45.0238C44.4888 70.4555 44.055 70.0183 44.055 69.479C44.055 68.9396 44.4888 68.5024 45.0238 68.5024H66.9415V33.8361H64.3985C63.8635 33.8361 63.4298 33.3989 63.4298 32.8596C63.4298 32.3203 63.8635 31.8831 64.3985 31.8831H66.9415V30.5401C66.9415 29.706 66.2554 28.953 65.367 28.953H41.5119ZM68.8789 32.3865V30.5401C68.8789 28.688 67.3846 27 65.367 27H41.5119C39.6745 27 38 28.5063 38 30.5401V75.4599C38 77.3423 39.6445 79 41.5119 79H65.4881C65.5005 79 65.5128 78.9998 65.5251 78.9993C67.3778 78.9772 69.0198 77.3189 68.8789 75.3007V69.952C68.9561 69.8119 69 69.6506 69 69.479C69 69.3073 68.9561 69.1461 68.8789 69.0059V33.3326C68.9561 33.1925 69 33.0312 69 32.8596C69 32.688 68.9561 32.5267 68.8789 32.3865Z" fill="white"/>
<path d="M150.668 69.3242C150.668 70.3945 150.418 71.2969 149.918 72.0312C149.418 72.7578 148.73 73.3086 147.855 73.6836C146.988 74.0508 146.004 74.2344 144.902 74.2344C143.801 74.2344 142.812 74.0508 141.938 73.6836C141.062 73.3086 140.371 72.7578 139.863 72.0312C139.355 71.2969 139.102 70.3945 139.102 69.3242C139.102 68.6055 139.246 67.957 139.535 67.3789C139.824 66.793 140.227 66.293 140.742 65.8789C141.266 65.457 141.879 65.1367 142.582 64.918C143.285 64.6914 144.051 64.5781 144.879 64.5781C145.988 64.5781 146.98 64.7734 147.855 65.1641C148.73 65.5547 149.418 66.1055 149.918 66.8164C150.418 67.5273 150.668 68.3633 150.668 69.3242ZM147.27 69.1016C147.27 68.5781 147.168 68.1289 146.965 67.7539C146.77 67.3711 146.492 67.0781 146.133 66.875C145.773 66.6719 145.355 66.5703 144.879 66.5703C144.402 66.5703 143.984 66.6719 143.625 66.875C143.266 67.0781 142.984 67.3711 142.781 67.7539C142.586 68.1289 142.488 68.5781 142.488 69.1016C142.488 69.6172 142.586 70.0625 142.781 70.4375C142.984 70.8125 143.266 71.1016 143.625 71.3047C143.992 71.5 144.418 71.5977 144.902 71.5977C145.387 71.5977 145.805 71.5 146.156 71.3047C146.516 71.1016 146.789 70.8125 146.977 70.4375C147.172 70.0625 147.27 69.6172 147.27 69.1016ZM150.305 61.4609C150.305 62.3281 150.074 63.0977 149.613 63.7695C149.152 64.4336 148.512 64.9531 147.691 65.3281C146.879 65.7031 145.949 65.8906 144.902 65.8906C143.848 65.8906 142.91 65.7031 142.09 65.3281C141.27 64.9531 140.629 64.4336 140.168 63.7695C139.707 63.0977 139.477 62.3281 139.477 61.4609C139.477 60.4297 139.707 59.5625 140.168 58.8594C140.637 58.1484 141.277 57.6094 142.09 57.2422C142.91 56.875 143.84 56.6914 144.879 56.6914C145.934 56.6914 146.867 56.875 147.68 57.2422C148.5 57.6094 149.141 58.1484 149.602 58.8594C150.07 59.5625 150.305 60.4297 150.305 61.4609ZM146.93 61.6133C146.93 61.1523 146.848 60.7539 146.684 60.418C146.52 60.0742 146.285 59.8086 145.98 59.6211C145.684 59.4336 145.316 59.3398 144.879 59.3398C144.457 59.3398 144.094 59.4297 143.789 59.6094C143.492 59.7891 143.262 60.0508 143.098 60.3945C142.941 60.7305 142.863 61.1367 142.863 61.6133C142.863 62.0742 142.941 62.4805 143.098 62.832C143.262 63.1758 143.496 63.4453 143.801 63.6406C144.105 63.8359 144.473 63.9336 144.902 63.9336C145.332 63.9336 145.695 63.8359 145.992 63.6406C146.297 63.4453 146.527 63.1758 146.684 62.832C146.848 62.4805 146.93 62.0742 146.93 61.6133ZM164.438 63.9688V66.9219C164.438 68.2031 164.301 69.3086 164.027 70.2383C163.754 71.1602 163.359 71.918 162.844 72.5117C162.336 73.0977 161.73 73.5312 161.027 73.8125C160.324 74.0938 159.543 74.2344 158.684 74.2344C157.996 74.2344 157.355 74.1484 156.762 73.9766C156.168 73.7969 155.633 73.5195 155.156 73.1445C154.688 72.7695 154.281 72.2969 153.938 71.7266C153.602 71.1484 153.344 70.4609 153.164 69.6641C152.984 68.8672 152.895 67.9531 152.895 66.9219V63.9688C152.895 62.6875 153.031 61.5898 153.305 60.6758C153.586 59.7539 153.98 59 154.488 58.4141C155.004 57.8281 155.613 57.3984 156.316 57.125C157.02 56.8438 157.801 56.7031 158.66 56.7031C159.348 56.7031 159.984 56.793 160.57 56.9727C161.164 57.1445 161.699 57.4141 162.176 57.7812C162.652 58.1484 163.059 58.6211 163.395 59.1992C163.73 59.7695 163.988 60.4531 164.168 61.25C164.348 62.0391 164.438 62.9453 164.438 63.9688ZM161.051 67.3672V63.5117C161.051 62.8945 161.016 62.3555 160.945 61.8945C160.883 61.4336 160.785 61.043 160.652 60.7227C160.52 60.3945 160.355 60.1289 160.16 59.9258C159.965 59.7227 159.742 59.5742 159.492 59.4805C159.242 59.3867 158.965 59.3398 158.66 59.3398C158.277 59.3398 157.938 59.4141 157.641 59.5625C157.352 59.7109 157.105 59.9492 156.902 60.2773C156.699 60.5977 156.543 61.0273 156.434 61.5664C156.332 62.0977 156.281 62.7461 156.281 63.5117V67.3672C156.281 67.9844 156.312 68.5273 156.375 68.9961C156.445 69.4648 156.547 69.8672 156.68 70.2031C156.82 70.5312 156.984 70.8008 157.172 71.0117C157.367 71.2148 157.59 71.3633 157.84 71.457C158.098 71.5508 158.379 71.5977 158.684 71.5977C159.059 71.5977 159.391 71.5234 159.68 71.375C159.977 71.2188 160.227 70.9766 160.43 70.6484C160.641 70.3125 160.797 69.875 160.898 69.3359C161 68.7969 161.051 68.1406 161.051 67.3672ZM170.191 64.0039H171.996C172.574 64.0039 173.051 63.9062 173.426 63.7109C173.801 63.5078 174.078 63.2266 174.258 62.8672C174.445 62.5 174.539 62.0742 174.539 61.5898C174.539 61.1523 174.453 60.7656 174.281 60.4297C174.117 60.0859 173.863 59.8203 173.52 59.6328C173.176 59.4375 172.742 59.3398 172.219 59.3398C171.805 59.3398 171.422 59.4219 171.07 59.5859C170.719 59.75 170.438 59.9805 170.227 60.2773C170.016 60.5742 169.91 60.9336 169.91 61.3555H166.523C166.523 60.418 166.773 59.6016 167.273 58.9062C167.781 58.2109 168.461 57.668 169.312 57.2773C170.164 56.8867 171.102 56.6914 172.125 56.6914C173.281 56.6914 174.293 56.8789 175.16 57.2539C176.027 57.6211 176.703 58.1641 177.188 58.8828C177.672 59.6016 177.914 60.4922 177.914 61.5547C177.914 62.0938 177.789 62.6172 177.539 63.125C177.289 63.625 176.93 64.0781 176.461 64.4844C176 64.8828 175.438 65.2031 174.773 65.4453C174.109 65.6797 173.363 65.7969 172.535 65.7969H170.191V64.0039ZM170.191 66.5703V64.8242H172.535C173.465 64.8242 174.281 64.9297 174.984 65.1406C175.688 65.3516 176.277 65.6562 176.754 66.0547C177.23 66.4453 177.59 66.9102 177.832 67.4492C178.074 67.9805 178.195 68.5703 178.195 69.2188C178.195 70.0156 178.043 70.7266 177.738 71.3516C177.434 71.9688 177.004 72.4922 176.449 72.9219C175.902 73.3516 175.262 73.6797 174.527 73.9062C173.793 74.125 172.992 74.2344 172.125 74.2344C171.406 74.2344 170.699 74.1367 170.004 73.9414C169.316 73.7383 168.691 73.4375 168.129 73.0391C167.574 72.6328 167.129 72.125 166.793 71.5156C166.465 70.8984 166.301 70.168 166.301 69.3242H169.688C169.688 69.7617 169.797 70.1523 170.016 70.4961C170.234 70.8398 170.535 71.1094 170.918 71.3047C171.309 71.5 171.742 71.5977 172.219 71.5977C172.758 71.5977 173.219 71.5 173.602 71.3047C173.992 71.1016 174.289 70.8203 174.492 70.4609C174.703 70.0938 174.809 69.668 174.809 69.1836C174.809 68.5586 174.695 68.0586 174.469 67.6836C174.242 67.3008 173.918 67.0195 173.496 66.8398C173.074 66.6602 172.574 66.5703 171.996 66.5703H170.191ZM180.82 72.3711C180.82 71.8711 180.992 71.4531 181.336 71.1172C181.688 70.7812 182.152 70.6133 182.73 70.6133C183.309 70.6133 183.77 70.7812 184.113 71.1172C184.465 71.4531 184.641 71.8711 184.641 72.3711C184.641 72.8711 184.465 73.2891 184.113 73.625C183.77 73.9609 183.309 74.1289 182.73 74.1289C182.152 74.1289 181.688 73.9609 181.336 73.625C180.992 73.2891 180.82 72.8711 180.82 72.3711ZM198.973 69.3242C198.973 70.3945 198.723 71.2969 198.223 72.0312C197.723 72.7578 197.035 73.3086 196.16 73.6836C195.293 74.0508 194.309 74.2344 193.207 74.2344C192.105 74.2344 191.117 74.0508 190.242 73.6836C189.367 73.3086 188.676 72.7578 188.168 72.0312C187.66 71.2969 187.406 70.3945 187.406 69.3242C187.406 68.6055 187.551 67.957 187.84 67.3789C188.129 66.793 188.531 66.293 189.047 65.8789C189.57 65.457 190.184 65.1367 190.887 64.918C191.59 64.6914 192.355 64.5781 193.184 64.5781C194.293 64.5781 195.285 64.7734 196.16 65.1641C197.035 65.5547 197.723 66.1055 198.223 66.8164C198.723 67.5273 198.973 68.3633 198.973 69.3242ZM195.574 69.1016C195.574 68.5781 195.473 68.1289 195.27 67.7539C195.074 67.3711 194.797 67.0781 194.438 66.875C194.078 66.6719 193.66 66.5703 193.184 66.5703C192.707 66.5703 192.289 66.6719 191.93 66.875C191.57 67.0781 191.289 67.3711 191.086 67.7539C190.891 68.1289 190.793 68.5781 190.793 69.1016C190.793 69.6172 190.891 70.0625 191.086 70.4375C191.289 70.8125 191.57 71.1016 191.93 71.3047C192.297 71.5 192.723 71.5977 193.207 71.5977C193.691 71.5977 194.109 71.5 194.461 71.3047C194.82 71.1016 195.094 70.8125 195.281 70.4375C195.477 70.0625 195.574 69.6172 195.574 69.1016ZM198.609 61.4609C198.609 62.3281 198.379 63.0977 197.918 63.7695C197.457 64.4336 196.816 64.9531 195.996 65.3281C195.184 65.7031 194.254 65.8906 193.207 65.8906C192.152 65.8906 191.215 65.7031 190.395 65.3281C189.574 64.9531 188.934 64.4336 188.473 63.7695C188.012 63.0977 187.781 62.3281 187.781 61.4609C187.781 60.4297 188.012 59.5625 188.473 58.8594C188.941 58.1484 189.582 57.6094 190.395 57.2422C191.215 56.875 192.145 56.6914 193.184 56.6914C194.238 56.6914 195.172 56.875 195.984 57.2422C196.805 57.6094 197.445 58.1484 197.906 58.8594C198.375 59.5625 198.609 60.4297 198.609 61.4609ZM195.234 61.6133C195.234 61.1523 195.152 60.7539 194.988 60.418C194.824 60.0742 194.59 59.8086 194.285 59.6211C193.988 59.4336 193.621 59.3398 193.184 59.3398C192.762 59.3398 192.398 59.4297 192.094 59.6094C191.797 59.7891 191.566 60.0508 191.402 60.3945C191.246 60.7305 191.168 61.1367 191.168 61.6133C191.168 62.0742 191.246 62.4805 191.402 62.832C191.566 63.1758 191.801 63.4453 192.105 63.6406C192.41 63.8359 192.777 63.9336 193.207 63.9336C193.637 63.9336 194 63.8359 194.297 63.6406C194.602 63.4453 194.832 63.1758 194.988 62.832C195.152 62.4805 195.234 62.0742 195.234 61.6133ZM212.848 56.9375V58.7539L206.25 74H202.688L209.285 59.5742H200.789V56.9375H212.848ZM218.496 64.0039H220.301C220.879 64.0039 221.355 63.9062 221.73 63.7109C222.105 63.5078 222.383 63.2266 222.562 62.8672C222.75 62.5 222.844 62.0742 222.844 61.5898C222.844 61.1523 222.758 60.7656 222.586 60.4297C222.422 60.0859 222.168 59.8203 221.824 59.6328C221.48 59.4375 221.047 59.3398 220.523 59.3398C220.109 59.3398 219.727 59.4219 219.375 59.5859C219.023 59.75 218.742 59.9805 218.531 60.2773C218.32 60.5742 218.215 60.9336 218.215 61.3555H214.828C214.828 60.418 215.078 59.6016 215.578 58.9062C216.086 58.2109 216.766 57.668 217.617 57.2773C218.469 56.8867 219.406 56.6914 220.43 56.6914C221.586 56.6914 222.598 56.8789 223.465 57.2539C224.332 57.6211 225.008 58.1641 225.492 58.8828C225.977 59.6016 226.219 60.4922 226.219 61.5547C226.219 62.0938 226.094 62.6172 225.844 63.125C225.594 63.625 225.234 64.0781 224.766 64.4844C224.305 64.8828 223.742 65.2031 223.078 65.4453C222.414 65.6797 221.668 65.7969 220.84 65.7969H218.496V64.0039ZM218.496 66.5703V64.8242H220.84C221.77 64.8242 222.586 64.9297 223.289 65.1406C223.992 65.3516 224.582 65.6562 225.059 66.0547C225.535 66.4453 225.895 66.9102 226.137 67.4492C226.379 67.9805 226.5 68.5703 226.5 69.2188C226.5 70.0156 226.348 70.7266 226.043 71.3516C225.738 71.9688 225.309 72.4922 224.754 72.9219C224.207 73.3516 223.566 73.6797 222.832 73.9062C222.098 74.125 221.297 74.2344 220.43 74.2344C219.711 74.2344 219.004 74.1367 218.309 73.9414C217.621 73.7383 216.996 73.4375 216.434 73.0391C215.879 72.6328 215.434 72.125 215.098 71.5156C214.77 70.8984 214.605 70.168 214.605 69.3242H217.992C217.992 69.7617 218.102 70.1523 218.32 70.4961C218.539 70.8398 218.84 71.1094 219.223 71.3047C219.613 71.5 220.047 71.5977 220.523 71.5977C221.062 71.5977 221.523 71.5 221.906 71.3047C222.297 71.1016 222.594 70.8203 222.797 70.4609C223.008 70.0938 223.113 69.668 223.113 69.1836C223.113 68.5586 223 68.0586 222.773 67.6836C222.547 67.3008 222.223 67.0195 221.801 66.8398C221.379 66.6602 220.879 66.5703 220.301 66.5703H218.496ZM229.125 72.3711C229.125 71.8711 229.297 71.4531 229.641 71.1172C229.992 70.7812 230.457 70.6133 231.035 70.6133C231.613 70.6133 232.074 70.7812 232.418 71.1172C232.77 71.4531 232.945 71.8711 232.945 72.3711C232.945 72.8711 232.77 73.2891 232.418 73.625C232.074 73.9609 231.613 74.1289 231.035 74.1289C230.457 74.1289 229.992 73.9609 229.641 73.625C229.297 73.2891 229.125 72.8711 229.125 72.3711ZM244.488 56.7617H244.98V59.457H244.781C243.891 59.457 243.098 59.5898 242.402 59.8555C241.707 60.1211 241.117 60.5 240.633 60.9922C240.156 61.4766 239.789 62.0625 239.531 62.75C239.281 63.4375 239.156 64.207 239.156 65.0586V67.8945C239.156 68.5039 239.215 69.043 239.332 69.5117C239.457 69.9727 239.633 70.3594 239.859 70.6719C240.094 70.9766 240.367 71.207 240.68 71.3633C240.992 71.5117 241.344 71.5859 241.734 71.5859C242.102 71.5859 242.434 71.5078 242.73 71.3516C243.035 71.1953 243.293 70.9766 243.504 70.6953C243.723 70.4062 243.887 70.0703 243.996 69.6875C244.113 69.2969 244.172 68.8711 244.172 68.4102C244.172 67.9492 244.113 67.5234 243.996 67.1328C243.887 66.7422 243.723 66.4062 243.504 66.125C243.285 65.8359 243.02 65.6133 242.707 65.457C242.395 65.3008 242.043 65.2227 241.652 65.2227C241.121 65.2227 240.652 65.3477 240.246 65.5977C239.848 65.8398 239.535 66.1523 239.309 66.5352C239.082 66.918 238.961 67.3203 238.945 67.7422L237.926 67.0859C237.949 66.4844 238.074 65.9141 238.301 65.375C238.535 64.8359 238.855 64.3594 239.262 63.9453C239.676 63.5234 240.172 63.1953 240.75 62.9609C241.328 62.7188 241.98 62.5977 242.707 62.5977C243.504 62.5977 244.203 62.75 244.805 63.0547C245.414 63.3594 245.922 63.7773 246.328 64.3086C246.734 64.8398 247.039 65.4531 247.242 66.1484C247.445 66.8438 247.547 67.5859 247.547 68.375C247.547 69.2031 247.41 69.9727 247.137 70.6836C246.871 71.3945 246.484 72.0156 245.977 72.5469C245.477 73.0781 244.875 73.4922 244.172 73.7891C243.469 74.0859 242.68 74.2344 241.805 74.2344C240.898 74.2344 240.074 74.0703 239.332 73.7422C238.598 73.4062 237.965 72.9375 237.434 72.3359C236.902 71.7344 236.492 71.0195 236.203 70.1914C235.922 69.3633 235.781 68.457 235.781 67.4727V66.1602C235.781 64.7852 235.98 63.5273 236.379 62.3867C236.785 61.2383 237.367 60.2461 238.125 59.4102C238.883 58.5664 239.797 57.9141 240.867 57.4531C241.938 56.9922 243.145 56.7617 244.488 56.7617ZM252.738 66.2305L250.043 65.5859L251.016 56.9375H260.602V59.668H253.793L253.371 63.4531C253.598 63.3203 253.941 63.1797 254.402 63.0312C254.863 62.875 255.379 62.7969 255.949 62.7969C256.777 62.7969 257.512 62.9258 258.152 63.1836C258.793 63.4414 259.336 63.8164 259.781 64.3086C260.234 64.8008 260.578 65.4023 260.812 66.1133C261.047 66.8242 261.164 67.6289 261.164 68.5273C261.164 69.2852 261.047 70.0078 260.812 70.6953C260.578 71.375 260.223 71.9844 259.746 72.5234C259.27 73.0547 258.672 73.4727 257.953 73.7773C257.234 74.082 256.383 74.2344 255.398 74.2344C254.664 74.2344 253.953 74.125 253.266 73.9062C252.586 73.6875 251.973 73.3633 251.426 72.9336C250.887 72.5039 250.453 71.9844 250.125 71.375C249.805 70.7578 249.637 70.0547 249.621 69.2656H252.973C253.02 69.75 253.145 70.168 253.348 70.5195C253.559 70.8633 253.836 71.1289 254.18 71.3164C254.523 71.5039 254.926 71.5977 255.387 71.5977C255.816 71.5977 256.184 71.5156 256.488 71.3516C256.793 71.1875 257.039 70.9609 257.227 70.6719C257.414 70.375 257.551 70.0312 257.637 69.6406C257.73 69.2422 257.777 68.8125 257.777 68.3516C257.777 67.8906 257.723 67.4727 257.613 67.0977C257.504 66.7227 257.336 66.3984 257.109 66.125C256.883 65.8516 256.594 65.6406 256.242 65.4922C255.898 65.3438 255.496 65.2695 255.035 65.2695C254.41 65.2695 253.926 65.3672 253.582 65.5625C253.246 65.7578 252.965 65.9805 252.738 66.2305ZM274.84 69.3242C274.84 70.3945 274.59 71.2969 274.09 72.0312C273.59 72.7578 272.902 73.3086 272.027 73.6836C271.16 74.0508 270.176 74.2344 269.074 74.2344C267.973 74.2344 266.984 74.0508 266.109 73.6836C265.234 73.3086 264.543 72.7578 264.035 72.0312C263.527 71.2969 263.273 70.3945 263.273 69.3242C263.273 68.6055 263.418 67.957 263.707 67.3789C263.996 66.793 264.398 66.293 264.914 65.8789C265.438 65.457 266.051 65.1367 266.754 64.918C267.457 64.6914 268.223 64.5781 269.051 64.5781C270.16 64.5781 271.152 64.7734 272.027 65.1641C272.902 65.5547 273.59 66.1055 274.09 66.8164C274.59 67.5273 274.84 68.3633 274.84 69.3242ZM271.441 69.1016C271.441 68.5781 271.34 68.1289 271.137 67.7539C270.941 67.3711 270.664 67.0781 270.305 66.875C269.945 66.6719 269.527 66.5703 269.051 66.5703C268.574 66.5703 268.156 66.6719 267.797 66.875C267.438 67.0781 267.156 67.3711 266.953 67.7539C266.758 68.1289 266.66 68.5781 266.66 69.1016C266.66 69.6172 266.758 70.0625 266.953 70.4375C267.156 70.8125 267.438 71.1016 267.797 71.3047C268.164 71.5 268.59 71.5977 269.074 71.5977C269.559 71.5977 269.977 71.5 270.328 71.3047C270.688 71.1016 270.961 70.8125 271.148 70.4375C271.344 70.0625 271.441 69.6172 271.441 69.1016ZM274.477 61.4609C274.477 62.3281 274.246 63.0977 273.785 63.7695C273.324 64.4336 272.684 64.9531 271.863 65.3281C271.051 65.7031 270.121 65.8906 269.074 65.8906C268.02 65.8906 267.082 65.7031 266.262 65.3281C265.441 64.9531 264.801 64.4336 264.34 63.7695C263.879 63.0977 263.648 62.3281 263.648 61.4609C263.648 60.4297 263.879 59.5625 264.34 58.8594C264.809 58.1484 265.449 57.6094 266.262 57.2422C267.082 56.875 268.012 56.6914 269.051 56.6914C270.105 56.6914 271.039 56.875 271.852 57.2422C272.672 57.6094 273.312 58.1484 273.773 58.8594C274.242 59.5625 274.477 60.4297 274.477 61.4609ZM271.102 61.6133C271.102 61.1523 271.02 60.7539 270.855 60.418C270.691 60.0742 270.457 59.8086 270.152 59.6211C269.855 59.4336 269.488 59.3398 269.051 59.3398C268.629 59.3398 268.266 59.4297 267.961 59.6094C267.664 59.7891 267.434 60.0508 267.27 60.3945C267.113 60.7305 267.035 61.1367 267.035 61.6133C267.035 62.0742 267.113 62.4805 267.27 62.832C267.434 63.1758 267.668 63.4453 267.973 63.6406C268.277 63.8359 268.645 63.9336 269.074 63.9336C269.504 63.9336 269.867 63.8359 270.164 63.6406C270.469 63.4453 270.699 63.1758 270.855 62.832C271.02 62.4805 271.102 62.0742 271.102 61.6133ZM288.715 56.9375V58.7539L282.117 74H278.555L285.152 59.5742H276.656V56.9375H288.715Z" fill="white"/>
<path d="M144.205 37.9814H140.786V36.6016H144.205C144.867 36.6016 145.403 36.4961 145.813 36.2852C146.224 36.0742 146.522 35.7812 146.71 35.4062C146.903 35.0312 147 34.6035 147 34.123C147 33.6836 146.903 33.2705 146.71 32.8838C146.522 32.4971 146.224 32.1865 145.813 31.9521C145.403 31.7119 144.867 31.5918 144.205 31.5918H141.182V43H139.485V30.2031H144.205C145.172 30.2031 145.989 30.3701 146.657 30.7041C147.325 31.0381 147.832 31.501 148.178 32.0928C148.523 32.6787 148.696 33.3496 148.696 34.1055C148.696 34.9258 148.523 35.626 148.178 36.2061C147.832 36.7861 147.325 37.2285 146.657 37.5332C145.989 37.832 145.172 37.9814 144.205 37.9814ZM152.221 29.5V43H150.595V29.5H152.221ZM151.834 37.8848L151.157 37.8584C151.163 37.208 151.26 36.6074 151.447 36.0566C151.635 35.5 151.898 35.0166 152.238 34.6064C152.578 34.1963 152.982 33.8799 153.451 33.6572C153.926 33.4287 154.45 33.3145 155.024 33.3145C155.493 33.3145 155.915 33.3789 156.29 33.5078C156.665 33.6309 156.984 33.8301 157.248 34.1055C157.518 34.3809 157.723 34.7383 157.863 35.1777C158.004 35.6113 158.074 36.1416 158.074 36.7686V43H156.439V36.751C156.439 36.2529 156.366 35.8545 156.22 35.5557C156.073 35.251 155.859 35.0312 155.578 34.8965C155.297 34.7559 154.951 34.6855 154.541 34.6855C154.137 34.6855 153.768 34.7705 153.434 34.9404C153.105 35.1104 152.821 35.3447 152.581 35.6436C152.347 35.9424 152.162 36.2852 152.027 36.6719C151.898 37.0527 151.834 37.457 151.834 37.8848ZM160.078 38.3506V38.1484C160.078 37.4629 160.178 36.8271 160.377 36.2412C160.576 35.6494 160.863 35.1367 161.238 34.7031C161.613 34.2637 162.067 33.9238 162.601 33.6836C163.134 33.4375 163.731 33.3145 164.394 33.3145C165.062 33.3145 165.662 33.4375 166.195 33.6836C166.734 33.9238 167.191 34.2637 167.566 34.7031C167.947 35.1367 168.237 35.6494 168.437 36.2412C168.636 36.8271 168.735 37.4629 168.735 38.1484V38.3506C168.735 39.0361 168.636 39.6719 168.437 40.2578C168.237 40.8438 167.947 41.3564 167.566 41.7959C167.191 42.2295 166.737 42.5693 166.204 42.8154C165.677 43.0557 165.079 43.1758 164.411 43.1758C163.743 43.1758 163.143 43.0557 162.609 42.8154C162.076 42.5693 161.619 42.2295 161.238 41.7959C160.863 41.3564 160.576 40.8438 160.377 40.2578C160.178 39.6719 160.078 39.0361 160.078 38.3506ZM161.704 38.1484V38.3506C161.704 38.8252 161.76 39.2734 161.871 39.6953C161.982 40.1113 162.149 40.4805 162.372 40.8027C162.601 41.125 162.885 41.3799 163.225 41.5674C163.564 41.749 163.96 41.8398 164.411 41.8398C164.856 41.8398 165.246 41.749 165.58 41.5674C165.92 41.3799 166.201 41.125 166.424 40.8027C166.646 40.4805 166.813 40.1113 166.925 39.6953C167.042 39.2734 167.101 38.8252 167.101 38.3506V38.1484C167.101 37.6797 167.042 37.2373 166.925 36.8213C166.813 36.3994 166.644 36.0273 166.415 35.7051C166.192 35.377 165.911 35.1191 165.571 34.9316C165.237 34.7441 164.845 34.6504 164.394 34.6504C163.948 34.6504 163.556 34.7441 163.216 34.9316C162.882 35.1191 162.601 35.377 162.372 35.7051C162.149 36.0273 161.982 36.3994 161.871 36.8213C161.76 37.2373 161.704 37.6797 161.704 38.1484ZM172.4 35.5205V43H170.774V33.4902H172.312L172.4 35.5205ZM172.014 37.8848L171.337 37.8584C171.343 37.208 171.439 36.6074 171.627 36.0566C171.814 35.5 172.078 35.0166 172.418 34.6064C172.758 34.1963 173.162 33.8799 173.631 33.6572C174.105 33.4287 174.63 33.3145 175.204 33.3145C175.673 33.3145 176.095 33.3789 176.47 33.5078C176.845 33.6309 177.164 33.8301 177.428 34.1055C177.697 34.3809 177.902 34.7383 178.043 35.1777C178.184 35.6113 178.254 36.1416 178.254 36.7686V43H176.619V36.751C176.619 36.2529 176.546 35.8545 176.399 35.5557C176.253 35.251 176.039 35.0312 175.758 34.8965C175.477 34.7559 175.131 34.6855 174.721 34.6855C174.316 34.6855 173.947 34.7705 173.613 34.9404C173.285 35.1104 173.001 35.3447 172.761 35.6436C172.526 35.9424 172.342 36.2852 172.207 36.6719C172.078 37.0527 172.014 37.457 172.014 37.8848ZM184.67 43.1758C184.008 43.1758 183.407 43.0645 182.868 42.8418C182.335 42.6133 181.875 42.2939 181.488 41.8838C181.107 41.4736 180.814 40.9873 180.609 40.4248C180.404 39.8623 180.302 39.2471 180.302 38.5791V38.21C180.302 37.4365 180.416 36.748 180.645 36.1445C180.873 35.5352 181.184 35.0195 181.576 34.5977C181.969 34.1758 182.414 33.8564 182.912 33.6396C183.41 33.4229 183.926 33.3145 184.459 33.3145C185.139 33.3145 185.725 33.4316 186.217 33.666C186.715 33.9004 187.122 34.2285 187.438 34.6504C187.755 35.0664 187.989 35.5586 188.142 36.127C188.294 36.6895 188.37 37.3047 188.37 37.9727V38.7021H181.269V37.375H186.744V37.252C186.721 36.8301 186.633 36.4199 186.48 36.0215C186.334 35.623 186.1 35.2949 185.777 35.0371C185.455 34.7793 185.016 34.6504 184.459 34.6504C184.09 34.6504 183.75 34.7295 183.439 34.8877C183.129 35.04 182.862 35.2686 182.64 35.5732C182.417 35.8779 182.244 36.25 182.121 36.6895C181.998 37.1289 181.937 37.6357 181.937 38.21V38.5791C181.937 39.0303 181.998 39.4551 182.121 39.8535C182.25 40.2461 182.435 40.5918 182.675 40.8906C182.921 41.1895 183.217 41.4238 183.562 41.5938C183.914 41.7637 184.312 41.8486 184.758 41.8486C185.332 41.8486 185.818 41.7314 186.217 41.4971C186.615 41.2627 186.964 40.9492 187.263 40.5566L188.247 41.3389C188.042 41.6494 187.781 41.9453 187.465 42.2266C187.148 42.5078 186.759 42.7363 186.296 42.9121C185.839 43.0879 185.297 43.1758 184.67 43.1758Z" fill="#9C99AF"/>
</svg>
