<svg width="445" height="106" viewBox="0 0 445 106" fill="none" xmlns="http://www.w3.org/2000/svg">
<circle cx="53" cy="53" r="53" fill="#9F8CD6"/>
<path d="M32.0868 37C29.2977 37 27 39.2434 27 41.9654V64.0346C27 66.7571 29.2982 69 32.0868 69H73.9132C76.7023 69 79 66.7566 79 64.0346V41.9654C79 39.2429 76.7018 37 73.9132 37H32.0868ZM33.2349 40.3106H72.7651L53.7242 56.1551C53.4399 56.3914 52.5599 56.3914 52.2756 56.1551L33.2349 40.3106ZM30.391 42.2934L43.9735 53.5861L30.391 63.8621V42.2934ZM75.6088 42.2934V63.8631L62.0263 53.5871L75.6088 42.2934ZM46.6058 55.7763L50.0857 58.6727C51.7885 60.089 54.2117 60.089 55.9145 58.6727L59.3944 55.7763L72.5176 65.6897H33.482L46.6058 55.7763Z" fill="white"/>
<path d="M147.615 42.6201V44H140.839V42.6201H147.615ZM141.182 31.2031V44H139.485V31.2031H141.182ZM146.719 36.7051V38.085H140.839V36.7051H146.719ZM147.527 31.2031V32.5918H140.839V31.2031H147.527ZM151.087 36.3799V44H149.452V34.4902H150.999L151.087 36.3799ZM150.753 38.8848L149.997 38.8584C150.003 38.208 150.088 37.6074 150.252 37.0566C150.416 36.5 150.659 36.0166 150.981 35.6064C151.304 35.1963 151.705 34.8799 152.186 34.6572C152.666 34.4287 153.223 34.3145 153.855 34.3145C154.301 34.3145 154.711 34.3789 155.086 34.5078C155.461 34.6309 155.786 34.8271 156.062 35.0967C156.337 35.3662 156.551 35.7119 156.703 36.1338C156.855 36.5557 156.932 37.0654 156.932 37.6631V44H155.306V37.7422C155.306 37.2441 155.221 36.8457 155.051 36.5469C154.887 36.248 154.652 36.0312 154.348 35.8965C154.043 35.7559 153.686 35.6855 153.275 35.6855C152.795 35.6855 152.394 35.7705 152.071 35.9404C151.749 36.1104 151.491 36.3447 151.298 36.6436C151.104 36.9424 150.964 37.2852 150.876 37.6719C150.794 38.0527 150.753 38.457 150.753 38.8848ZM156.914 37.9883L155.824 38.3223C155.83 37.8008 155.915 37.2998 156.079 36.8193C156.249 36.3389 156.492 35.9111 156.809 35.5361C157.131 35.1611 157.526 34.8652 157.995 34.6484C158.464 34.4258 159 34.3145 159.604 34.3145C160.113 34.3145 160.564 34.3818 160.957 34.5166C161.355 34.6514 161.689 34.8594 161.959 35.1406C162.234 35.416 162.442 35.7705 162.583 36.2041C162.724 36.6377 162.794 37.1533 162.794 37.751V44H161.159V37.7334C161.159 37.2002 161.074 36.7871 160.904 36.4941C160.74 36.1953 160.506 35.9873 160.201 35.8701C159.902 35.7471 159.545 35.6855 159.129 35.6855C158.771 35.6855 158.455 35.7471 158.18 35.8701C157.904 35.9932 157.673 36.1631 157.485 36.3799C157.298 36.5908 157.154 36.834 157.055 37.1094C156.961 37.3848 156.914 37.6777 156.914 37.9883ZM170.862 42.374V37.4785C170.862 37.1035 170.786 36.7783 170.634 36.5029C170.487 36.2217 170.265 36.0049 169.966 35.8525C169.667 35.7002 169.298 35.624 168.858 35.624C168.448 35.624 168.088 35.6943 167.777 35.835C167.473 35.9756 167.232 36.1602 167.057 36.3887C166.887 36.6172 166.802 36.8633 166.802 37.127H165.176C165.176 36.7871 165.264 36.4502 165.439 36.1162C165.615 35.7822 165.867 35.4805 166.195 35.2109C166.529 34.9355 166.928 34.7188 167.391 34.5605C167.859 34.3965 168.381 34.3145 168.955 34.3145C169.646 34.3145 170.256 34.4316 170.783 34.666C171.316 34.9004 171.732 35.2549 172.031 35.7295C172.336 36.1982 172.488 36.7871 172.488 37.4961V41.9258C172.488 42.2422 172.515 42.5791 172.567 42.9365C172.626 43.2939 172.711 43.6016 172.822 43.8594V44H171.126C171.044 43.8125 170.979 43.5635 170.933 43.2529C170.886 42.9365 170.862 42.6436 170.862 42.374ZM171.144 38.2344L171.161 39.377H169.518C169.055 39.377 168.642 39.415 168.278 39.4912C167.915 39.5615 167.61 39.6699 167.364 39.8164C167.118 39.9629 166.931 40.1475 166.802 40.3701C166.673 40.5869 166.608 40.8418 166.608 41.1348C166.608 41.4336 166.676 41.7061 166.811 41.9521C166.945 42.1982 167.147 42.3945 167.417 42.541C167.692 42.6816 168.029 42.752 168.428 42.752C168.926 42.752 169.365 42.6465 169.746 42.4355C170.127 42.2246 170.429 41.9668 170.651 41.6621C170.88 41.3574 171.003 41.0615 171.021 40.7744L171.715 41.5566C171.674 41.8027 171.562 42.0752 171.381 42.374C171.199 42.6729 170.956 42.96 170.651 43.2354C170.353 43.5049 169.995 43.7305 169.579 43.9121C169.169 44.0879 168.706 44.1758 168.19 44.1758C167.546 44.1758 166.98 44.0498 166.494 43.7979C166.014 43.5459 165.639 43.209 165.369 42.7871C165.105 42.3594 164.974 41.8818 164.974 41.3545C164.974 40.8447 165.073 40.3965 165.272 40.0098C165.472 39.6172 165.759 39.292 166.134 39.0342C166.509 38.7705 166.96 38.5713 167.487 38.4365C168.015 38.3018 168.604 38.2344 169.254 38.2344H171.144ZM176.812 34.4902V44H175.178V34.4902H176.812ZM175.055 31.9678C175.055 31.7041 175.134 31.4814 175.292 31.2998C175.456 31.1182 175.696 31.0273 176.013 31.0273C176.323 31.0273 176.561 31.1182 176.725 31.2998C176.895 31.4814 176.979 31.7041 176.979 31.9678C176.979 32.2197 176.895 32.4365 176.725 32.6182C176.561 32.7939 176.323 32.8818 176.013 32.8818C175.696 32.8818 175.456 32.7939 175.292 32.6182C175.134 32.4365 175.055 32.2197 175.055 31.9678ZM181.189 30.5V44H179.555V30.5H181.189Z" fill="#9C99AF"/>
<path d="M142.688 63.9453V74H139.301V61.3203H142.477L142.688 63.9453ZM142.219 67.2148H141.281C141.281 66.332 141.387 65.5195 141.598 64.7773C141.816 64.0273 142.133 63.3789 142.547 62.832C142.969 62.2773 143.488 61.8477 144.105 61.543C144.723 61.2383 145.438 61.0859 146.25 61.0859C146.812 61.0859 147.328 61.1719 147.797 61.3438C148.266 61.5078 148.668 61.7695 149.004 62.1289C149.348 62.4805 149.613 62.9414 149.801 63.5117C149.988 64.0742 150.082 64.75 150.082 65.5391V74H146.707V65.9141C146.707 65.3359 146.629 64.8906 146.473 64.5781C146.316 64.2656 146.094 64.0469 145.805 63.9219C145.523 63.7969 145.184 63.7344 144.785 63.7344C144.348 63.7344 143.965 63.8242 143.637 64.0039C143.316 64.1836 143.051 64.4336 142.84 64.7539C142.629 65.0664 142.473 65.4336 142.371 65.8555C142.27 66.2773 142.219 66.7305 142.219 67.2148ZM149.766 66.8281L148.559 66.9805C148.559 66.1523 148.66 65.3828 148.863 64.6719C149.074 63.9609 149.383 63.3359 149.789 62.7969C150.203 62.2578 150.715 61.8398 151.324 61.543C151.934 61.2383 152.637 61.0859 153.434 61.0859C154.043 61.0859 154.598 61.1758 155.098 61.3555C155.598 61.5273 156.023 61.8047 156.375 62.1875C156.734 62.5625 157.008 63.0547 157.195 63.6641C157.391 64.2734 157.488 65.0195 157.488 65.9023V74H154.102V65.9023C154.102 65.3164 154.023 64.8711 153.867 64.5664C153.719 64.2539 153.5 64.0391 153.211 63.9219C152.93 63.7969 152.594 63.7344 152.203 63.7344C151.797 63.7344 151.441 63.8164 151.137 63.9805C150.832 64.1367 150.578 64.3555 150.375 64.6367C150.172 64.918 150.02 65.2461 149.918 65.6211C149.816 65.9883 149.766 66.3906 149.766 66.8281ZM166.945 71.1406V65.4922C166.945 65.0859 166.879 64.7383 166.746 64.4492C166.613 64.1523 166.406 63.9219 166.125 63.7578C165.852 63.5938 165.496 63.5117 165.059 63.5117C164.684 63.5117 164.359 63.5781 164.086 63.7109C163.812 63.8359 163.602 64.0195 163.453 64.2617C163.305 64.4961 163.23 64.7734 163.23 65.0938H159.855C159.855 64.5547 159.98 64.043 160.23 63.5586C160.48 63.0742 160.844 62.6484 161.32 62.2812C161.797 61.9062 162.363 61.6133 163.02 61.4023C163.684 61.1914 164.426 61.0859 165.246 61.0859C166.23 61.0859 167.105 61.25 167.871 61.5781C168.637 61.9062 169.238 62.3984 169.676 63.0547C170.121 63.7109 170.344 64.5312 170.344 65.5156V70.9414C170.344 71.6367 170.387 72.207 170.473 72.6523C170.559 73.0898 170.684 73.4727 170.848 73.8008V74H167.438C167.273 73.6562 167.148 73.2266 167.062 72.7109C166.984 72.1875 166.945 71.6641 166.945 71.1406ZM167.391 66.2773L167.414 68.1875H165.527C165.082 68.1875 164.695 68.2383 164.367 68.3398C164.039 68.4414 163.77 68.5859 163.559 68.7734C163.348 68.9531 163.191 69.1641 163.09 69.4062C162.996 69.6484 162.949 69.9141 162.949 70.2031C162.949 70.4922 163.016 70.7539 163.148 70.9883C163.281 71.2148 163.473 71.3945 163.723 71.5273C163.973 71.6523 164.266 71.7148 164.602 71.7148C165.109 71.7148 165.551 71.6133 165.926 71.4102C166.301 71.207 166.59 70.957 166.793 70.6602C167.004 70.3633 167.113 70.082 167.121 69.8164L168.012 71.2461C167.887 71.5664 167.715 71.8984 167.496 72.2422C167.285 72.5859 167.016 72.9102 166.688 73.2148C166.359 73.5117 165.965 73.7578 165.504 73.9531C165.043 74.1406 164.496 74.2344 163.863 74.2344C163.059 74.2344 162.328 74.0742 161.672 73.7539C161.023 73.4258 160.508 72.9766 160.125 72.4062C159.75 71.8281 159.562 71.1719 159.562 70.4375C159.562 69.7734 159.688 69.1836 159.938 68.668C160.188 68.1523 160.555 67.7188 161.039 67.3672C161.531 67.0078 162.145 66.7383 162.879 66.5586C163.613 66.3711 164.465 66.2773 165.434 66.2773H167.391ZM179.156 61.3203V63.7109H171.773V61.3203H179.156ZM173.602 58.1914H176.977V70.1797C176.977 70.5469 177.023 70.8281 177.117 71.0234C177.219 71.2188 177.367 71.3555 177.562 71.4336C177.758 71.5039 178.004 71.5391 178.301 71.5391C178.512 71.5391 178.699 71.5312 178.863 71.5156C179.035 71.4922 179.18 71.4688 179.297 71.4453L179.309 73.9297C179.02 74.0234 178.707 74.0977 178.371 74.1523C178.035 74.207 177.664 74.2344 177.258 74.2344C176.516 74.2344 175.867 74.1133 175.312 73.8711C174.766 73.6211 174.344 73.2227 174.047 72.6758C173.75 72.1289 173.602 71.4102 173.602 70.5195V58.1914ZM187.289 61.3203V63.7109H179.906V61.3203H187.289ZM181.734 58.1914H185.109V70.1797C185.109 70.5469 185.156 70.8281 185.25 71.0234C185.352 71.2188 185.5 71.3555 185.695 71.4336C185.891 71.5039 186.137 71.5391 186.434 71.5391C186.645 71.5391 186.832 71.5312 186.996 71.5156C187.168 71.4922 187.312 71.4688 187.43 71.4453L187.441 73.9297C187.152 74.0234 186.84 74.0977 186.504 74.1523C186.168 74.207 185.797 74.2344 185.391 74.2344C184.648 74.2344 184 74.1133 183.445 73.8711C182.898 73.6211 182.477 73.2227 182.18 72.6758C181.883 72.1289 181.734 71.4102 181.734 70.5195V58.1914ZM194.449 71.5977C194.863 71.5977 195.23 71.5195 195.551 71.3633C195.871 71.1992 196.121 70.9727 196.301 70.6836C196.488 70.3867 196.586 70.0391 196.594 69.6406H199.77C199.762 70.5312 199.523 71.3242 199.055 72.0195C198.586 72.707 197.957 73.25 197.168 73.6484C196.379 74.0391 195.496 74.2344 194.52 74.2344C193.535 74.2344 192.676 74.0703 191.941 73.7422C191.215 73.4141 190.609 72.9609 190.125 72.3828C189.641 71.7969 189.277 71.1172 189.035 70.3438C188.793 69.5625 188.672 68.7266 188.672 67.8359V67.4961C188.672 66.5977 188.793 65.7617 189.035 64.9883C189.277 64.207 189.641 63.5273 190.125 62.9492C190.609 62.3633 191.215 61.9062 191.941 61.5781C192.668 61.25 193.52 61.0859 194.496 61.0859C195.535 61.0859 196.445 61.2852 197.227 61.6836C198.016 62.082 198.633 62.6523 199.078 63.3945C199.531 64.1289 199.762 65 199.77 66.0078H196.594C196.586 65.5859 196.496 65.2031 196.324 64.8594C196.16 64.5156 195.918 64.2422 195.598 64.0391C195.285 63.8281 194.898 63.7227 194.438 63.7227C193.945 63.7227 193.543 63.8281 193.23 64.0391C192.918 64.2422 192.676 64.5234 192.504 64.8828C192.332 65.2344 192.211 65.6367 192.141 66.0898C192.078 66.5352 192.047 67.0039 192.047 67.4961V67.8359C192.047 68.3281 192.078 68.8008 192.141 69.2539C192.203 69.707 192.32 70.1094 192.492 70.4609C192.672 70.8125 192.918 71.0898 193.23 71.293C193.543 71.4961 193.949 71.5977 194.449 71.5977ZM201.188 67.7891V67.543C201.188 66.6133 201.32 65.7578 201.586 64.9766C201.852 64.1875 202.238 63.5039 202.746 62.9258C203.254 62.3477 203.879 61.8984 204.621 61.5781C205.363 61.25 206.215 61.0859 207.176 61.0859C208.137 61.0859 208.992 61.25 209.742 61.5781C210.492 61.8984 211.121 62.3477 211.629 62.9258C212.145 63.5039 212.535 64.1875 212.801 64.9766C213.066 65.7578 213.199 66.6133 213.199 67.543V67.7891C213.199 68.7109 213.066 69.5664 212.801 70.3555C212.535 71.1367 212.145 71.8203 211.629 72.4062C211.121 72.9844 210.496 73.4336 209.754 73.7539C209.012 74.0742 208.16 74.2344 207.199 74.2344C206.238 74.2344 205.383 74.0742 204.633 73.7539C203.891 73.4336 203.262 72.9844 202.746 72.4062C202.238 71.8203 201.852 71.1367 201.586 70.3555C201.32 69.5664 201.188 68.7109 201.188 67.7891ZM204.562 67.543V67.7891C204.562 68.3203 204.609 68.8164 204.703 69.2773C204.797 69.7383 204.945 70.1445 205.148 70.4961C205.359 70.8398 205.633 71.1094 205.969 71.3047C206.305 71.5 206.715 71.5977 207.199 71.5977C207.668 71.5977 208.07 71.5 208.406 71.3047C208.742 71.1094 209.012 70.8398 209.215 70.4961C209.418 70.1445 209.566 69.7383 209.66 69.2773C209.762 68.8164 209.812 68.3203 209.812 67.7891V67.543C209.812 67.0273 209.762 66.543 209.66 66.0898C209.566 65.6289 209.414 65.2227 209.203 64.8711C209 64.5117 208.73 64.2305 208.395 64.0273C208.059 63.8242 207.652 63.7227 207.176 63.7227C206.699 63.7227 206.293 63.8242 205.957 64.0273C205.629 64.2305 205.359 64.5117 205.148 64.8711C204.945 65.2227 204.797 65.6289 204.703 66.0898C204.609 66.543 204.562 67.0273 204.562 67.543ZM222.762 71.2344V56H226.16V74H223.102L222.762 71.2344ZM214.746 67.8125V67.5664C214.746 66.5977 214.855 65.7188 215.074 64.9297C215.293 64.1328 215.613 63.4492 216.035 62.8789C216.457 62.3086 216.977 61.8672 217.594 61.5547C218.211 61.2422 218.914 61.0859 219.703 61.0859C220.445 61.0859 221.094 61.2422 221.648 61.5547C222.211 61.8672 222.688 62.3125 223.078 62.8906C223.477 63.4609 223.797 64.1367 224.039 64.918C224.281 65.6914 224.457 66.5391 224.566 67.4609V68C224.457 68.8828 224.281 69.7031 224.039 70.4609C223.797 71.2188 223.477 71.8828 223.078 72.4531C222.688 73.0156 222.211 73.4531 221.648 73.7656C221.086 74.0781 220.43 74.2344 219.68 74.2344C218.891 74.2344 218.188 74.0742 217.57 73.7539C216.961 73.4336 216.445 72.9844 216.023 72.4062C215.609 71.8281 215.293 71.1484 215.074 70.3672C214.855 69.5859 214.746 68.7344 214.746 67.8125ZM218.121 67.5664V67.8125C218.121 68.3359 218.16 68.8242 218.238 69.2773C218.324 69.7305 218.461 70.1328 218.648 70.4844C218.844 70.8281 219.094 71.0977 219.398 71.293C219.711 71.4805 220.09 71.5742 220.535 71.5742C221.113 71.5742 221.59 71.4453 221.965 71.1875C222.34 70.9219 222.625 70.5586 222.82 70.0977C223.023 69.6367 223.141 69.1055 223.172 68.5039V66.9688C223.148 66.4766 223.078 66.0352 222.961 65.6445C222.852 65.2461 222.688 64.9062 222.469 64.625C222.258 64.3438 221.992 64.125 221.672 63.9688C221.359 63.8125 220.988 63.7344 220.559 63.7344C220.121 63.7344 219.746 63.8359 219.434 64.0391C219.121 64.2344 218.867 64.5039 218.672 64.8477C218.484 65.1914 218.344 65.5977 218.25 66.0664C218.164 66.5273 218.121 67.0273 218.121 67.5664ZM236.285 71.2344V56H239.684V74H236.625L236.285 71.2344ZM228.27 67.8125V67.5664C228.27 66.5977 228.379 65.7188 228.598 64.9297C228.816 64.1328 229.137 63.4492 229.559 62.8789C229.98 62.3086 230.5 61.8672 231.117 61.5547C231.734 61.2422 232.438 61.0859 233.227 61.0859C233.969 61.0859 234.617 61.2422 235.172 61.5547C235.734 61.8672 236.211 62.3125 236.602 62.8906C237 63.4609 237.32 64.1367 237.562 64.918C237.805 65.6914 237.98 66.5391 238.09 67.4609V68C237.98 68.8828 237.805 69.7031 237.562 70.4609C237.32 71.2188 237 71.8828 236.602 72.4531C236.211 73.0156 235.734 73.4531 235.172 73.7656C234.609 74.0781 233.953 74.2344 233.203 74.2344C232.414 74.2344 231.711 74.0742 231.094 73.7539C230.484 73.4336 229.969 72.9844 229.547 72.4062C229.133 71.8281 228.816 71.1484 228.598 70.3672C228.379 69.5859 228.27 68.7344 228.27 67.8125ZM231.645 67.5664V67.8125C231.645 68.3359 231.684 68.8242 231.762 69.2773C231.848 69.7305 231.984 70.1328 232.172 70.4844C232.367 70.8281 232.617 71.0977 232.922 71.293C233.234 71.4805 233.613 71.5742 234.059 71.5742C234.637 71.5742 235.113 71.4453 235.488 71.1875C235.863 70.9219 236.148 70.5586 236.344 70.0977C236.547 69.6367 236.664 69.1055 236.695 68.5039V66.9688C236.672 66.4766 236.602 66.0352 236.484 65.6445C236.375 65.2461 236.211 64.9062 235.992 64.625C235.781 64.3438 235.516 64.125 235.195 63.9688C234.883 63.8125 234.512 63.7344 234.082 63.7344C233.645 63.7344 233.27 63.8359 232.957 64.0391C232.645 64.2344 232.391 64.5039 232.195 64.8477C232.008 65.1914 231.867 65.5977 231.773 66.0664C231.688 66.5273 231.645 67.0273 231.645 67.5664ZM245.883 61.3203V74H242.496V61.3203H245.883ZM242.285 58.0156C242.285 57.5234 242.457 57.1172 242.801 56.7969C243.145 56.4766 243.605 56.3164 244.184 56.3164C244.754 56.3164 245.211 56.4766 245.555 56.7969C245.906 57.1172 246.082 57.5234 246.082 58.0156C246.082 58.5078 245.906 58.9141 245.555 59.2344C245.211 59.5547 244.754 59.7148 244.184 59.7148C243.605 59.7148 243.145 59.5547 242.801 59.2344C242.457 58.9141 242.285 58.5078 242.285 58.0156ZM251.977 64.0273V74H248.602V61.3203H251.766L251.977 64.0273ZM251.484 67.2148H250.57C250.57 66.2773 250.691 65.4336 250.934 64.6836C251.176 63.9258 251.516 63.2812 251.953 62.75C252.391 62.2109 252.91 61.8008 253.512 61.5195C254.121 61.2305 254.801 61.0859 255.551 61.0859C256.145 61.0859 256.688 61.1719 257.18 61.3438C257.672 61.5156 258.094 61.7891 258.445 62.1641C258.805 62.5391 259.078 63.0352 259.266 63.6523C259.461 64.2695 259.559 65.0234 259.559 65.9141V74H256.16V65.9023C256.16 65.3398 256.082 64.9023 255.926 64.5898C255.77 64.2773 255.539 64.0586 255.234 63.9336C254.938 63.8008 254.57 63.7344 254.133 63.7344C253.68 63.7344 253.285 63.8242 252.949 64.0039C252.621 64.1836 252.348 64.4336 252.129 64.7539C251.918 65.0664 251.758 65.4336 251.648 65.8555C251.539 66.2773 251.484 66.7305 251.484 67.2148ZM270.152 61.3203H273.211V73.5781C273.211 74.7344 272.953 75.7148 272.438 76.5195C271.93 77.332 271.219 77.9453 270.305 78.3594C269.391 78.7812 268.328 78.9922 267.117 78.9922C266.586 78.9922 266.023 78.9219 265.43 78.7812C264.844 78.6406 264.281 78.4219 263.742 78.125C263.211 77.8281 262.766 77.4531 262.406 77L263.895 75.0078C264.285 75.4609 264.738 75.8125 265.254 76.0625C265.77 76.3203 266.34 76.4492 266.965 76.4492C267.574 76.4492 268.09 76.3359 268.512 76.1094C268.934 75.8906 269.258 75.5664 269.484 75.1367C269.711 74.7148 269.824 74.2031 269.824 73.6016V64.25L270.152 61.3203ZM261.621 67.8125V67.5664C261.621 66.5977 261.738 65.7188 261.973 64.9297C262.215 64.1328 262.555 63.4492 262.992 62.8789C263.438 62.3086 263.977 61.8672 264.609 61.5547C265.242 61.2422 265.957 61.0859 266.754 61.0859C267.598 61.0859 268.305 61.2422 268.875 61.5547C269.445 61.8672 269.914 62.3125 270.281 62.8906C270.648 63.4609 270.934 64.1367 271.137 64.918C271.348 65.6914 271.512 66.5391 271.629 67.4609V68C271.512 68.8828 271.336 69.7031 271.102 70.4609C270.867 71.2188 270.559 71.8828 270.176 72.4531C269.793 73.0156 269.316 73.4531 268.746 73.7656C268.184 74.0781 267.512 74.2344 266.73 74.2344C265.949 74.2344 265.242 74.0742 264.609 73.7539C263.984 73.4336 263.449 72.9844 263.004 72.4062C262.559 71.8281 262.215 71.1484 261.973 70.3672C261.738 69.5859 261.621 68.7344 261.621 67.8125ZM264.996 67.5664V67.8125C264.996 68.3359 265.047 68.8242 265.148 69.2773C265.25 69.7305 265.406 70.1328 265.617 70.4844C265.836 70.8281 266.105 71.0977 266.426 71.293C266.754 71.4805 267.141 71.5742 267.586 71.5742C268.203 71.5742 268.707 71.4453 269.098 71.1875C269.488 70.9219 269.781 70.5586 269.977 70.0977C270.172 69.6367 270.285 69.1055 270.316 68.5039V66.9688C270.301 66.4766 270.234 66.0352 270.117 65.6445C270 65.2461 269.836 64.9062 269.625 64.625C269.414 64.3438 269.141 64.125 268.805 63.9688C268.469 63.8125 268.07 63.7344 267.609 63.7344C267.164 63.7344 266.777 63.8359 266.449 64.0391C266.129 64.2344 265.859 64.5039 265.641 64.8477C265.43 65.1914 265.27 65.5977 265.16 66.0664C265.051 66.5273 264.996 67.0273 264.996 67.5664ZM282.047 61.3203V63.7109H274.664V61.3203H282.047ZM276.492 58.1914H279.867V70.1797C279.867 70.5469 279.914 70.8281 280.008 71.0234C280.109 71.2188 280.258 71.3555 280.453 71.4336C280.648 71.5039 280.895 71.5391 281.191 71.5391C281.402 71.5391 281.59 71.5312 281.754 71.5156C281.926 71.4922 282.07 71.4688 282.188 71.4453L282.199 73.9297C281.91 74.0234 281.598 74.0977 281.262 74.1523C280.926 74.207 280.555 74.2344 280.148 74.2344C279.406 74.2344 278.758 74.1133 278.203 73.8711C277.656 73.6211 277.234 73.2227 276.938 72.6758C276.641 72.1289 276.492 71.4102 276.492 70.5195V58.1914ZM283.125 67.7891V67.543C283.125 66.6133 283.258 65.7578 283.523 64.9766C283.789 64.1875 284.176 63.5039 284.684 62.9258C285.191 62.3477 285.816 61.8984 286.559 61.5781C287.301 61.25 288.152 61.0859 289.113 61.0859C290.074 61.0859 290.93 61.25 291.68 61.5781C292.43 61.8984 293.059 62.3477 293.566 62.9258C294.082 63.5039 294.473 64.1875 294.738 64.9766C295.004 65.7578 295.137 66.6133 295.137 67.543V67.7891C295.137 68.7109 295.004 69.5664 294.738 70.3555C294.473 71.1367 294.082 71.8203 293.566 72.4062C293.059 72.9844 292.434 73.4336 291.691 73.7539C290.949 74.0742 290.098 74.2344 289.137 74.2344C288.176 74.2344 287.32 74.0742 286.57 73.7539C285.828 73.4336 285.199 72.9844 284.684 72.4062C284.176 71.8203 283.789 71.1367 283.523 70.3555C283.258 69.5664 283.125 68.7109 283.125 67.7891ZM286.5 67.543V67.7891C286.5 68.3203 286.547 68.8164 286.641 69.2773C286.734 69.7383 286.883 70.1445 287.086 70.4961C287.297 70.8398 287.57 71.1094 287.906 71.3047C288.242 71.5 288.652 71.5977 289.137 71.5977C289.605 71.5977 290.008 71.5 290.344 71.3047C290.68 71.1094 290.949 70.8398 291.152 70.4961C291.355 70.1445 291.504 69.7383 291.598 69.2773C291.699 68.8164 291.75 68.3203 291.75 67.7891V67.543C291.75 67.0273 291.699 66.543 291.598 66.0898C291.504 65.6289 291.352 65.2227 291.141 64.8711C290.938 64.5117 290.668 64.2305 290.332 64.0273C289.996 63.8242 289.59 63.7227 289.113 63.7227C288.637 63.7227 288.23 63.8242 287.895 64.0273C287.566 64.2305 287.297 64.5117 287.086 64.8711C286.883 65.2227 286.734 65.6289 286.641 66.0898C286.547 66.543 286.5 67.0273 286.5 67.543ZM300.516 64.0273V74H297.141V61.3203H300.305L300.516 64.0273ZM300.023 67.2148H299.109C299.109 66.2773 299.23 65.4336 299.473 64.6836C299.715 63.9258 300.055 63.2812 300.492 62.75C300.93 62.2109 301.449 61.8008 302.051 61.5195C302.66 61.2305 303.34 61.0859 304.09 61.0859C304.684 61.0859 305.227 61.1719 305.719 61.3438C306.211 61.5156 306.633 61.7891 306.984 62.1641C307.344 62.5391 307.617 63.0352 307.805 63.6523C308 64.2695 308.098 65.0234 308.098 65.9141V74H304.699V65.9023C304.699 65.3398 304.621 64.9023 304.465 64.5898C304.309 64.2773 304.078 64.0586 303.773 63.9336C303.477 63.8008 303.109 63.7344 302.672 63.7344C302.219 63.7344 301.824 63.8242 301.488 64.0039C301.16 64.1836 300.887 64.4336 300.668 64.7539C300.457 65.0664 300.297 65.4336 300.188 65.8555C300.078 66.2773 300.023 66.7305 300.023 67.2148ZM329.848 67.7305C329.816 68.5273 329.699 69.3125 329.496 70.0859C329.293 70.8594 328.984 71.5586 328.57 72.1836C328.164 72.8086 327.645 73.3086 327.012 73.6836C326.379 74.0586 325.613 74.2461 324.715 74.2461C324.207 74.2461 323.75 74.1562 323.344 73.9766C322.938 73.7969 322.594 73.543 322.312 73.2148C322.031 72.8789 321.824 72.4766 321.691 72.0078C321.559 71.5391 321.512 71.0117 321.551 70.4258L322.148 63.6758H324.492L323.906 70.4258C323.859 70.832 323.863 71.1641 323.918 71.4219C323.98 71.6797 324.074 71.8789 324.199 72.0195C324.332 72.1602 324.48 72.2617 324.645 72.3242C324.816 72.3789 324.984 72.4062 325.148 72.4062C325.523 72.4062 325.867 72.2891 326.18 72.0547C326.492 71.8203 326.762 71.4961 326.988 71.082C327.215 70.668 327.395 70.1836 327.527 69.6289C327.66 69.0664 327.734 68.4609 327.75 67.8125C327.805 66.7734 327.754 65.8125 327.598 64.9297C327.449 64.0469 327.191 63.2578 326.824 62.5625C326.465 61.8594 325.996 61.2656 325.418 60.7812C324.84 60.2891 324.152 59.9141 323.355 59.6562C322.559 59.3906 321.648 59.2578 320.625 59.2578C319.664 59.2578 318.777 59.4062 317.965 59.7031C317.16 60 316.438 60.4258 315.797 60.9805C315.164 61.5352 314.617 62.1992 314.156 62.9727C313.703 63.7383 313.344 64.5938 313.078 65.5391C312.82 66.4766 312.668 67.4844 312.621 68.5625C312.566 69.6953 312.625 70.7266 312.797 71.6562C312.977 72.5859 313.262 73.4023 313.652 74.1055C314.051 74.8164 314.547 75.4102 315.141 75.8867C315.734 76.3633 316.426 76.7227 317.215 76.9648C318.004 77.207 318.883 77.3281 319.852 77.3281C320.531 77.3281 321.223 77.25 321.926 77.0938C322.637 76.9453 323.234 76.7539 323.719 76.5195L324.164 78.2656C323.617 78.6172 322.934 78.8789 322.113 79.0508C321.301 79.2227 320.531 79.3086 319.805 79.3086C318.562 79.3086 317.43 79.1562 316.406 78.8516C315.391 78.5547 314.492 78.1094 313.711 77.5156C312.93 76.9297 312.277 76.2031 311.754 75.3359C311.238 74.4688 310.855 73.4688 310.605 72.3359C310.363 71.2031 310.27 69.9453 310.324 68.5625C310.379 67.2812 310.578 66.0742 310.922 64.9414C311.266 63.8086 311.734 62.7812 312.328 61.8594C312.922 60.9375 313.633 60.1445 314.461 59.4805C315.297 58.8086 316.234 58.293 317.273 57.9336C318.312 57.5742 319.445 57.3945 320.672 57.3945C321.891 57.3945 322.996 57.5547 323.988 57.875C324.988 58.1953 325.863 58.6562 326.613 59.2578C327.363 59.8516 327.988 60.5742 328.488 61.4258C328.988 62.2695 329.352 63.2227 329.578 64.2852C329.805 65.3477 329.895 66.4961 329.848 67.7305ZM318.012 68.9609C317.973 69.4766 317.977 69.9336 318.023 70.332C318.07 70.7305 318.16 71.0664 318.293 71.3398C318.426 71.6133 318.598 71.8203 318.809 71.9609C319.027 72.0938 319.285 72.1602 319.582 72.1602C319.746 72.1602 319.926 72.1211 320.121 72.043C320.316 71.957 320.516 71.8164 320.719 71.6211C320.922 71.4258 321.113 71.1562 321.293 70.8125C321.48 70.4609 321.637 70.0195 321.762 69.4883L322.758 70.6719C322.578 71.2578 322.355 71.7734 322.09 72.2188C321.824 72.6562 321.52 73.0234 321.176 73.3203C320.84 73.6172 320.473 73.8398 320.074 73.9883C319.676 74.1367 319.246 74.2109 318.785 74.2109C318.215 74.2109 317.707 74.0898 317.262 73.8477C316.816 73.5977 316.445 73.2422 316.148 72.7812C315.852 72.3203 315.637 71.7695 315.504 71.1289C315.379 70.4805 315.355 69.7578 315.434 68.9609C315.52 68.1641 315.676 67.4258 315.902 66.7461C316.129 66.0664 316.41 65.4609 316.746 64.9297C317.082 64.3906 317.465 63.9336 317.895 63.5586C318.332 63.1758 318.805 62.8867 319.312 62.6914C319.82 62.4961 320.352 62.3984 320.906 62.3984C321.805 62.3984 322.512 62.5273 323.027 62.7852C323.543 63.043 324.031 63.3398 324.492 63.6758L323.297 65.2812C323.07 65.0781 322.773 64.8828 322.406 64.6953C322.047 64.5 321.617 64.4023 321.117 64.4023C320.656 64.4023 320.25 64.5 319.898 64.6953C319.555 64.8906 319.254 65.1836 318.996 65.5742C318.746 65.957 318.539 66.4336 318.375 67.0039C318.211 67.5664 318.09 68.2188 318.012 68.9609ZM340.207 61.3203H343.266V73.5781C343.266 74.7344 343.008 75.7148 342.492 76.5195C341.984 77.332 341.273 77.9453 340.359 78.3594C339.445 78.7812 338.383 78.9922 337.172 78.9922C336.641 78.9922 336.078 78.9219 335.484 78.7812C334.898 78.6406 334.336 78.4219 333.797 78.125C333.266 77.8281 332.82 77.4531 332.461 77L333.949 75.0078C334.34 75.4609 334.793 75.8125 335.309 76.0625C335.824 76.3203 336.395 76.4492 337.02 76.4492C337.629 76.4492 338.145 76.3359 338.566 76.1094C338.988 75.8906 339.312 75.5664 339.539 75.1367C339.766 74.7148 339.879 74.2031 339.879 73.6016V64.25L340.207 61.3203ZM331.676 67.8125V67.5664C331.676 66.5977 331.793 65.7188 332.027 64.9297C332.27 64.1328 332.609 63.4492 333.047 62.8789C333.492 62.3086 334.031 61.8672 334.664 61.5547C335.297 61.2422 336.012 61.0859 336.809 61.0859C337.652 61.0859 338.359 61.2422 338.93 61.5547C339.5 61.8672 339.969 62.3125 340.336 62.8906C340.703 63.4609 340.988 64.1367 341.191 64.918C341.402 65.6914 341.566 66.5391 341.684 67.4609V68C341.566 68.8828 341.391 69.7031 341.156 70.4609C340.922 71.2188 340.613 71.8828 340.23 72.4531C339.848 73.0156 339.371 73.4531 338.801 73.7656C338.238 74.0781 337.566 74.2344 336.785 74.2344C336.004 74.2344 335.297 74.0742 334.664 73.7539C334.039 73.4336 333.504 72.9844 333.059 72.4062C332.613 71.8281 332.27 71.1484 332.027 70.3672C331.793 69.5859 331.676 68.7344 331.676 67.8125ZM335.051 67.5664V67.8125C335.051 68.3359 335.102 68.8242 335.203 69.2773C335.305 69.7305 335.461 70.1328 335.672 70.4844C335.891 70.8281 336.16 71.0977 336.48 71.293C336.809 71.4805 337.195 71.5742 337.641 71.5742C338.258 71.5742 338.762 71.4453 339.152 71.1875C339.543 70.9219 339.836 70.5586 340.031 70.0977C340.227 69.6367 340.34 69.1055 340.371 68.5039V66.9688C340.355 66.4766 340.289 66.0352 340.172 65.6445C340.055 65.2461 339.891 64.9062 339.68 64.625C339.469 64.3438 339.195 64.125 338.859 63.9688C338.523 63.8125 338.125 63.7344 337.664 63.7344C337.219 63.7344 336.832 63.8359 336.504 64.0391C336.184 64.2344 335.914 64.5039 335.695 64.8477C335.484 65.1914 335.324 65.5977 335.215 66.0664C335.105 66.5273 335.051 67.0273 335.051 67.5664ZM349.266 63.9453V74H345.879V61.3203H349.055L349.266 63.9453ZM348.797 67.2148H347.859C347.859 66.332 347.965 65.5195 348.176 64.7773C348.395 64.0273 348.711 63.3789 349.125 62.832C349.547 62.2773 350.066 61.8477 350.684 61.543C351.301 61.2383 352.016 61.0859 352.828 61.0859C353.391 61.0859 353.906 61.1719 354.375 61.3438C354.844 61.5078 355.246 61.7695 355.582 62.1289C355.926 62.4805 356.191 62.9414 356.379 63.5117C356.566 64.0742 356.66 64.75 356.66 65.5391V74H353.285V65.9141C353.285 65.3359 353.207 64.8906 353.051 64.5781C352.895 64.2656 352.672 64.0469 352.383 63.9219C352.102 63.7969 351.762 63.7344 351.363 63.7344C350.926 63.7344 350.543 63.8242 350.215 64.0039C349.895 64.1836 349.629 64.4336 349.418 64.7539C349.207 65.0664 349.051 65.4336 348.949 65.8555C348.848 66.2773 348.797 66.7305 348.797 67.2148ZM356.344 66.8281L355.137 66.9805C355.137 66.1523 355.238 65.3828 355.441 64.6719C355.652 63.9609 355.961 63.3359 356.367 62.7969C356.781 62.2578 357.293 61.8398 357.902 61.543C358.512 61.2383 359.215 61.0859 360.012 61.0859C360.621 61.0859 361.176 61.1758 361.676 61.3555C362.176 61.5273 362.602 61.8047 362.953 62.1875C363.312 62.5625 363.586 63.0547 363.773 63.6641C363.969 64.2734 364.066 65.0195 364.066 65.9023V74H360.68V65.9023C360.68 65.3164 360.602 64.8711 360.445 64.5664C360.297 64.2539 360.078 64.0391 359.789 63.9219C359.508 63.7969 359.172 63.7344 358.781 63.7344C358.375 63.7344 358.02 63.8164 357.715 63.9805C357.41 64.1367 357.156 64.3555 356.953 64.6367C356.75 64.918 356.598 65.2461 356.496 65.6211C356.395 65.9883 356.344 66.3906 356.344 66.8281ZM373.523 71.1406V65.4922C373.523 65.0859 373.457 64.7383 373.324 64.4492C373.191 64.1523 372.984 63.9219 372.703 63.7578C372.43 63.5938 372.074 63.5117 371.637 63.5117C371.262 63.5117 370.938 63.5781 370.664 63.7109C370.391 63.8359 370.18 64.0195 370.031 64.2617C369.883 64.4961 369.809 64.7734 369.809 65.0938H366.434C366.434 64.5547 366.559 64.043 366.809 63.5586C367.059 63.0742 367.422 62.6484 367.898 62.2812C368.375 61.9062 368.941 61.6133 369.598 61.4023C370.262 61.1914 371.004 61.0859 371.824 61.0859C372.809 61.0859 373.684 61.25 374.449 61.5781C375.215 61.9062 375.816 62.3984 376.254 63.0547C376.699 63.7109 376.922 64.5312 376.922 65.5156V70.9414C376.922 71.6367 376.965 72.207 377.051 72.6523C377.137 73.0898 377.262 73.4727 377.426 73.8008V74H374.016C373.852 73.6562 373.727 73.2266 373.641 72.7109C373.562 72.1875 373.523 71.6641 373.523 71.1406ZM373.969 66.2773L373.992 68.1875H372.105C371.66 68.1875 371.273 68.2383 370.945 68.3398C370.617 68.4414 370.348 68.5859 370.137 68.7734C369.926 68.9531 369.77 69.1641 369.668 69.4062C369.574 69.6484 369.527 69.9141 369.527 70.2031C369.527 70.4922 369.594 70.7539 369.727 70.9883C369.859 71.2148 370.051 71.3945 370.301 71.5273C370.551 71.6523 370.844 71.7148 371.18 71.7148C371.688 71.7148 372.129 71.6133 372.504 71.4102C372.879 71.207 373.168 70.957 373.371 70.6602C373.582 70.3633 373.691 70.082 373.699 69.8164L374.59 71.2461C374.465 71.5664 374.293 71.8984 374.074 72.2422C373.863 72.5859 373.594 72.9102 373.266 73.2148C372.938 73.5117 372.543 73.7578 372.082 73.9531C371.621 74.1406 371.074 74.2344 370.441 74.2344C369.637 74.2344 368.906 74.0742 368.25 73.7539C367.602 73.4258 367.086 72.9766 366.703 72.4062C366.328 71.8281 366.141 71.1719 366.141 70.4375C366.141 69.7734 366.266 69.1836 366.516 68.668C366.766 68.1523 367.133 67.7188 367.617 67.3672C368.109 67.0078 368.723 66.7383 369.457 66.5586C370.191 66.3711 371.043 66.2773 372.012 66.2773H373.969ZM383.086 61.3203V74H379.699V61.3203H383.086ZM379.488 58.0156C379.488 57.5234 379.66 57.1172 380.004 56.7969C380.348 56.4766 380.809 56.3164 381.387 56.3164C381.957 56.3164 382.414 56.4766 382.758 56.7969C383.109 57.1172 383.285 57.5234 383.285 58.0156C383.285 58.5078 383.109 58.9141 382.758 59.2344C382.414 59.5547 381.957 59.7148 381.387 59.7148C380.809 59.7148 380.348 59.5547 380.004 59.2344C379.66 58.9141 379.488 58.5078 379.488 58.0156ZM389.438 56V74H386.051V56H389.438ZM392.391 72.3711C392.391 71.8711 392.562 71.4531 392.906 71.1172C393.258 70.7812 393.723 70.6133 394.301 70.6133C394.879 70.6133 395.34 70.7812 395.684 71.1172C396.035 71.4531 396.211 71.8711 396.211 72.3711C396.211 72.8711 396.035 73.2891 395.684 73.625C395.34 73.9609 394.879 74.1289 394.301 74.1289C393.723 74.1289 393.258 73.9609 392.906 73.625C392.562 73.2891 392.391 72.8711 392.391 72.3711ZM404.426 71.5977C404.84 71.5977 405.207 71.5195 405.527 71.3633C405.848 71.1992 406.098 70.9727 406.277 70.6836C406.465 70.3867 406.562 70.0391 406.57 69.6406H409.746C409.738 70.5312 409.5 71.3242 409.031 72.0195C408.562 72.707 407.934 73.25 407.145 73.6484C406.355 74.0391 405.473 74.2344 404.496 74.2344C403.512 74.2344 402.652 74.0703 401.918 73.7422C401.191 73.4141 400.586 72.9609 400.102 72.3828C399.617 71.7969 399.254 71.1172 399.012 70.3438C398.77 69.5625 398.648 68.7266 398.648 67.8359V67.4961C398.648 66.5977 398.77 65.7617 399.012 64.9883C399.254 64.207 399.617 63.5273 400.102 62.9492C400.586 62.3633 401.191 61.9062 401.918 61.5781C402.645 61.25 403.496 61.0859 404.473 61.0859C405.512 61.0859 406.422 61.2852 407.203 61.6836C407.992 62.082 408.609 62.6523 409.055 63.3945C409.508 64.1289 409.738 65 409.746 66.0078H406.57C406.562 65.5859 406.473 65.2031 406.301 64.8594C406.137 64.5156 405.895 64.2422 405.574 64.0391C405.262 63.8281 404.875 63.7227 404.414 63.7227C403.922 63.7227 403.52 63.8281 403.207 64.0391C402.895 64.2422 402.652 64.5234 402.48 64.8828C402.309 65.2344 402.188 65.6367 402.117 66.0898C402.055 66.5352 402.023 67.0039 402.023 67.4961V67.8359C402.023 68.3281 402.055 68.8008 402.117 69.2539C402.18 69.707 402.297 70.1094 402.469 70.4609C402.648 70.8125 402.895 71.0898 403.207 71.293C403.52 71.4961 403.926 71.5977 404.426 71.5977ZM411.164 67.7891V67.543C411.164 66.6133 411.297 65.7578 411.562 64.9766C411.828 64.1875 412.215 63.5039 412.723 62.9258C413.23 62.3477 413.855 61.8984 414.598 61.5781C415.34 61.25 416.191 61.0859 417.152 61.0859C418.113 61.0859 418.969 61.25 419.719 61.5781C420.469 61.8984 421.098 62.3477 421.605 62.9258C422.121 63.5039 422.512 64.1875 422.777 64.9766C423.043 65.7578 423.176 66.6133 423.176 67.543V67.7891C423.176 68.7109 423.043 69.5664 422.777 70.3555C422.512 71.1367 422.121 71.8203 421.605 72.4062C421.098 72.9844 420.473 73.4336 419.73 73.7539C418.988 74.0742 418.137 74.2344 417.176 74.2344C416.215 74.2344 415.359 74.0742 414.609 73.7539C413.867 73.4336 413.238 72.9844 412.723 72.4062C412.215 71.8203 411.828 71.1367 411.562 70.3555C411.297 69.5664 411.164 68.7109 411.164 67.7891ZM414.539 67.543V67.7891C414.539 68.3203 414.586 68.8164 414.68 69.2773C414.773 69.7383 414.922 70.1445 415.125 70.4961C415.336 70.8398 415.609 71.1094 415.945 71.3047C416.281 71.5 416.691 71.5977 417.176 71.5977C417.645 71.5977 418.047 71.5 418.383 71.3047C418.719 71.1094 418.988 70.8398 419.191 70.4961C419.395 70.1445 419.543 69.7383 419.637 69.2773C419.738 68.8164 419.789 68.3203 419.789 67.7891V67.543C419.789 67.0273 419.738 66.543 419.637 66.0898C419.543 65.6289 419.391 65.2227 419.18 64.8711C418.977 64.5117 418.707 64.2305 418.371 64.0273C418.035 63.8242 417.629 63.7227 417.152 63.7227C416.676 63.7227 416.27 63.8242 415.934 64.0273C415.605 64.2305 415.336 64.5117 415.125 64.8711C414.922 65.2227 414.773 65.6289 414.68 66.0898C414.586 66.543 414.539 67.0273 414.539 67.543ZM428.625 63.9453V74H425.238V61.3203H428.414L428.625 63.9453ZM428.156 67.2148H427.219C427.219 66.332 427.324 65.5195 427.535 64.7773C427.754 64.0273 428.07 63.3789 428.484 62.832C428.906 62.2773 429.426 61.8477 430.043 61.543C430.66 61.2383 431.375 61.0859 432.188 61.0859C432.75 61.0859 433.266 61.1719 433.734 61.3438C434.203 61.5078 434.605 61.7695 434.941 62.1289C435.285 62.4805 435.551 62.9414 435.738 63.5117C435.926 64.0742 436.02 64.75 436.02 65.5391V74H432.645V65.9141C432.645 65.3359 432.566 64.8906 432.41 64.5781C432.254 64.2656 432.031 64.0469 431.742 63.9219C431.461 63.7969 431.121 63.7344 430.723 63.7344C430.285 63.7344 429.902 63.8242 429.574 64.0039C429.254 64.1836 428.988 64.4336 428.777 64.7539C428.566 65.0664 428.41 65.4336 428.309 65.8555C428.207 66.2773 428.156 66.7305 428.156 67.2148ZM435.703 66.8281L434.496 66.9805C434.496 66.1523 434.598 65.3828 434.801 64.6719C435.012 63.9609 435.32 63.3359 435.727 62.7969C436.141 62.2578 436.652 61.8398 437.262 61.543C437.871 61.2383 438.574 61.0859 439.371 61.0859C439.98 61.0859 440.535 61.1758 441.035 61.3555C441.535 61.5273 441.961 61.8047 442.312 62.1875C442.672 62.5625 442.945 63.0547 443.133 63.6641C443.328 64.2734 443.426 65.0195 443.426 65.9023V74H440.039V65.9023C440.039 65.3164 439.961 64.8711 439.805 64.5664C439.656 64.2539 439.438 64.0391 439.148 63.9219C438.867 63.7969 438.531 63.7344 438.141 63.7344C437.734 63.7344 437.379 63.8164 437.074 63.9805C436.77 64.1367 436.516 64.3555 436.312 64.6367C436.109 64.918 435.957 65.2461 435.855 65.6211C435.754 65.9883 435.703 66.3906 435.703 66.8281Z" fill="white"/>
</svg>
