<svg width="40" height="18" viewBox="0 0 40 18" fill="none" xmlns="http://www.w3.org/2000/svg">
<path id="mc" d="M12.9062 3.78125C12.3021 3.78125 11.1979 4.65625 9.59375 6.40625C8.39583 7.77083 7.52604 8.79688 6.98438 9.48438L5.57812 11.2656C4.97396 12.4115 4.5 13.3646 4.15625 14.125L3.3125 15.9375C3.09375 16.3854 2.90104 16.7031 2.73438 16.8906C2.57812 17.0677 2.35938 17.1562 2.07812 17.1562C1.80729 17.1562 1.54167 17.1042 1.28125 17C1.03125 16.9062 0.8125 16.7812 0.625 16.625C0.229167 16.2917 0.03125 15.9271 0.03125 15.5312C0.03125 15.375 0.145833 15.0677 0.375 14.6094L0.96875 13.3438C1.15625 12.9688 1.375 12.4896 1.625 11.9062L2.5 9.76562C3.72917 6.69271 4.34375 4.70833 4.34375 3.8125C4.34375 3.33333 4.1875 2.97917 3.875 2.75L3.5625 2.53125C3.45833 2.45833 3.40625 2.33333 3.40625 2.15625C3.40625 1.96875 3.47396 1.79167 3.60938 1.625C3.75521 1.45833 3.94271 1.3125 4.17188 1.1875C4.64062 0.947917 5.10938 0.828125 5.57812 0.828125C6.05729 0.828125 6.43229 0.880208 6.70312 0.984375C6.97396 1.08854 7.20833 1.22917 7.40625 1.40625C7.80208 1.77083 8 2.15104 8 2.54688C8 2.94271 7.94792 3.34375 7.84375 3.75C7.73958 4.14583 7.60938 4.55208 7.45312 4.96875C7.29688 5.375 7.13021 5.77083 6.95312 6.15625C6.53646 7.05208 6.27604 7.60417 6.17188 7.8125C6.07812 8.01042 6.05208 8.08333 6.09375 8.03125C8 5.5625 9.14583 4.10417 9.53125 3.65625C10.3333 2.72917 10.9583 2.09375 11.4062 1.75C12.2292 1.13542 13.0052 0.828125 13.7344 0.828125C14.474 0.828125 15.0625 1.05729 15.5 1.51562C15.9375 1.97396 16.1562 2.57812 16.1562 3.32812C16.1562 3.98438 15.9896 4.75521 15.6562 5.64062C15.3229 6.52604 15.099 7.14583 14.9844 7.5L17.2812 4.46875L18.5625 2.9375C19.3333 2.07292 20.0104 1.50521 20.5938 1.23438C21.1771 0.963542 21.651 0.828125 22.0156 0.828125C22.3906 0.828125 22.7552 0.895833 23.1094 1.03125C23.474 1.16667 23.7812 1.35938 24.0312 1.60938C24.5625 2.11979 24.8281 2.79688 24.8281 3.64062C24.8281 4.45312 24.6406 5.28646 24.2656 6.14062C23.8906 6.99479 23.5625 7.69792 23.2812 8.25C23 8.79167 22.7292 9.33854 22.4688 9.89062C21.7083 11.5469 21.3281 12.776 21.3281 13.5781C21.3281 14.1406 21.5573 14.4219 22.0156 14.4219C22.4531 14.4219 22.849 14.3281 23.2031 14.1406C23.5677 13.9531 23.8021 13.8594 23.9062 13.8594C24.125 13.8594 24.2344 13.9688 24.2344 14.1875C24.2344 15.1146 23.7604 15.8906 22.8125 16.5156C22.1771 16.9427 21.5938 17.1562 21.0625 17.1562C20.5417 17.1562 20.1198 17.0938 19.7969 16.9688C19.474 16.8438 19.1823 16.6458 18.9219 16.375C18.3385 15.7708 18.0469 15.0156 18.0469 14.1094C18.0469 13.2031 18.1615 12.3698 18.3906 11.6094C18.6198 10.849 18.8906 10.1146 19.2031 9.40625C19.5156 8.6875 19.8281 8.03125 20.1406 7.4375C20.4635 6.83333 20.7083 6.35417 20.875 6C21.2083 5.27083 21.375 4.73438 21.375 4.39062C21.375 3.98438 21.1615 3.78125 20.7344 3.78125C20.1719 3.78125 19.1615 4.71354 17.7031 6.57812C16.599 8.02604 15.8333 9.06771 15.4062 9.70312L14.3281 11.2656C13.724 12.4115 13.2604 13.3646 12.9375 14.125L12.1406 15.9375C11.9427 16.3854 11.7708 16.7031 11.625 16.8906C11.4792 17.0677 11.276 17.1562 11.0156 17.1562C10.7552 17.1562 10.5 17.1146 10.25 17.0312C10.0104 16.9479 9.80208 16.8385 9.625 16.7031C9.21875 16.401 9.01562 16.0833 9.01562 15.75C9.01562 15.4062 9.125 14.9427 9.34375 14.3594C9.57292 13.7656 9.85417 13.1042 10.1875 12.375L12.375 7.75C13.1562 6.03125 13.5469 4.94271 13.5469 4.48438C13.5469 4.01562 13.3333 3.78125 12.9062 3.78125ZM14.4531 8.1875C14.4635 8.1875 14.4688 8.18229 14.4688 8.17188L14.4844 8.14062C14.4635 8.16146 14.4531 8.17708 14.4531 8.1875ZM25.5562 11.6094C25.5771 10.7031 25.7177 9.80208 25.9781 8.90625C26.249 8 26.6031 7.14583 27.0406 6.34375C27.4885 5.54167 28.0146 4.80208 28.6187 4.125C29.2333 3.44792 29.9 2.86458 30.6187 2.375C32.1187 1.34375 33.6969 0.828125 35.3531 0.828125C37.0615 0.828125 38.2229 1.51042 38.8375 2.875C39.0562 3.36458 39.1552 3.92188 39.1344 4.54688C39.124 5.16146 39.025 5.72917 38.8375 6.25C38.65 6.76042 38.4156 7.21875 38.1344 7.625C37.499 8.54167 36.8583 9 36.2125 9C35.4937 9 34.9625 8.80208 34.6187 8.40625C34.3167 8.0625 34.2229 7.66146 34.3375 7.20312C34.3687 7.06771 34.4625 6.94792 34.6187 6.84375C34.775 6.72917 34.9729 6.55208 35.2125 6.3125C35.8896 5.60417 36.2437 4.77604 36.275 3.82812C36.2958 3.18229 35.9 2.85938 35.0875 2.85938C34.2125 2.85938 33.2958 3.34896 32.3375 4.32812C30.9417 5.75521 29.9573 7.58333 29.3844 9.8125C28.8844 11.75 28.9781 13.1667 29.6656 14.0625C30.0719 14.5833 30.624 14.8438 31.3219 14.8438C32.499 14.8438 33.6344 14.4271 34.7281 13.5938C35.0615 13.3333 35.3323 13.0677 35.5406 12.7969C35.749 12.526 35.9417 12.3906 36.1187 12.3906C36.2958 12.3906 36.4417 12.4792 36.5562 12.6562C36.6812 12.8229 36.7437 13.0417 36.7437 13.3125C36.7437 13.9271 36.4677 14.5312 35.9156 15.125C34.499 16.4792 32.7958 17.1562 30.8062 17.1562C29.1083 17.1562 27.7958 16.6719 26.8687 15.7031C25.9521 14.7448 25.5146 13.3802 25.5562 11.6094Z" fill="#7E6CB2"/>
</svg>
